<?xml version="1.0"?>
<svg id="Capa_2" data-name="Capa 2" xmlns="http://www.w3.org/2000/svg" viewBox="0 0 1838.94 606.66">
  <defs>
    
  </defs>
  <g id="Capa_1-2" data-name="Capa 1">
    <g>
      <path class="cls-3" d="M1222.35,518.69c1.98-16.72-8.41-22.09-20.48-26.89-13.02-5.18-15.35-23.8-22-34.28-7.71-12.15-19.78-19.67-25.73-33.06-4.01-9.02,8.77-16.57,4.73-37.43-1.2-6.2-1.6-12.22-3.24-17.83-.28-.95-.39-2.48-.26-3.46-4.78-10.79-9.67-21.33-18.43-30.23-.96-.98-1.64-4.46-.63-4.76l10.73-3.17c-7.89-8.23-11.88-17.17-17.45-26.25-2.67-4.35-4.08-12.23.95-15.02,7.18,2.38,11.93,11.62,19.11,13.21l9.75,2.16,13.15,32.42c4.21,10.39.17,22.37-6.1,30.51l-.44,3.23c-.88,6.41,2.93,24.97,9.25,31.32l1.36,1.12c3.3,1.65,6.16-2.21,8.76-4.16,6.89,1.46,12.94,5.72,18.64,8.74,1.33-.18,3.14.14,4.23-.53,1.79-1.1.65-3.6.75-5.17-2.3-.96-4.17-2.87-5.51-5.79,2.61-2.84,5.51-3.7,8.47-4.06.34-2.15-1.02-3.41-2.61-4.39-1.46-.08-4.36.73-5.37-.99-.87-1.48.51-3.9.65-5.43-.05-.79-.43-1.62-1.14-2.05-3.01.51-8.93,4.24-11.53,2.01-3.83-3.51,1.49-8.71,3.52-11.69,3.1-4.54.26-10.03.22-14.95-.06-8.29,2.26-16.06,1.45-24.41-1.14-11.73-2.96-23.01-5.95-34.21-1.37-5.15-4.84-9.04-9.55-11.21-11.78-5.44,1.38-12.98-7.4-18.43-32.99-20.46-23.21-35.03-50.64-53.79,4.02-26.25,50.98,4.68,65.4-45.33,5.13-17.78,2.19-33.78-7.75-48.91-.74-1.13-2.56-1.5-3.14-2.93-11.63-9.84-24.23-16.39-40.18-17.86-29.94-2.75-26.2-.67-44.51,13.57-6.8,5.29-10.65,13.08-11.56,21.48-2.07,19.23-13.3,1.85-24.22,37.44-10.8-5.35-19.83-13.17-30.71-17.03-8.03-2.85-13.93-7.76-16.03-16.55-2.97-12.44-8.05-23.85-11.99-35.46-2.94-8.65,4.42-18.35,8.37-25.53l.09-5.64,36.33,3.36c7.16.66,14.45.91,19.95-5.1-.67-6.69-47.73-10.94-36.96-17.27l3.22-1.9c-2.63,1.55,22.54-21.91,19.72-26.9-4.55-8.05-34.88,7.38-41.58,10.72-32.63,16.29-11.14,18.27-57.12,15.78-14.37-.78-42.08-3.5-50.82,6.34-.79,1.96,2.84,2.94,4.07,3.09l33.4,4.16c6.85.85,14.26-1.31,20.2,4.26-9.36,8.96-14.32,19.35-23.04,11.25l-10.33-9.59c-1.34.39-3-.54-4.38-.26-1.68,2.36-6.34,3.41-5.87,7.54.31,2.72,5.03,6.91,2.52,9.92-3.59,5.38-24.23-.45-27.23,6.03,8.39,3.95,17.06,3.53,25.81,4.5l36.2,4.04c1.94.22,3.9-.91,4.93-1.78,1.46-1.22-.21-3.69-.04-5.74.35-4.04,5.37-4.36,8.19-5.57.8-.34,1.3,1.03,1.34,1.59,7.57,5.11,11.41,13.9,12.74,22.85.11.75.23,1.77.08,2.5-.79,3.76,1.15,7.54,1.21,11.78l.38,27.13,1.93,6.93c2.27.31,2.78,2.6,3.5,4.4.85.78,2.38,1.94,2.72,3.19,3.94,1.7,6.41,5.94,10.07,8.12,1.12.67,1.42,2.86,3.04,3.09.47,1.43,1.56,2.54,3.01,2.98.43.46.88.89,1.32,1.34.35.66.88,1.2,1.53,1.56,4.52,4.61,7.54,9.46,10.35,15.35,2.92,6.11,10.85,8.41,14.22,14.62,4.89,9.01,12.04,20.56,12.12,31.47.15,20.63,2.87,38.89,5.64,59.02l7.87,57.02c.34,2.45,4.96,1.44,5.53,2.8,10.83,25.7-6.64,54.91-11.48,87.68-2.72,18.4,9.39,37.46,9.87,51.88l.32,9.39c2.46,1.8-2.69,18.38,1.71,26.87l5.64,3.76c-6.24,4.1-7.75,10.62-11.32,16.29-8.97,14.25-35.85,15.78-30.86,29.84,2.83,7.97,34.53,4.88,51.34-6.61,13.79-9.43,30.64-6.34,43.05-22.07.01-4.64-13.59-17.32-16.49-25.83,3-1.79,9.12-2.21,8.93-6.08-.86-17.12-19.06-44.17-13.94-65.66,1.58-6.63,5.53-12.15,8.71-17.95,4.3,14.77,9.81,26.86,17.29,39.55,12.77,21.66,32.61,34.61,43.24,56.96.94.73,2.05,1.18,3.2,1.43,2.77-1.7,4.5-4.13,9.06-5.77,1.53,7.15,5.78,13.69,6.32,21.44.57,8.31-9.22,30.81,2.54,33.82,17.78,4.54,32.63-17.88,36.13-29.88,1.56-5.33-3.16-11.1-4.46-16.13-2.21-8.54-.5-18.22.41-25.87Z"></path>
      <path class="cls-3" d="M1542.48,561.05c-.35-.59.77-2.29-.3-2.78-.76-.36-2.57,1.17-3.61,1.02-3.79-.53-11.7-5.01-11.78-9.82-.31-17.72-1.44-35.09.28-52.68-.52,5.38,10.42-21.63-2.33-40.56-11.55-17.14-1.34-37.28-6.94-61.17,5.15-12.96-1.3-42.51-2.2-57.13,13.02-6.48,23.9-13.31,32.26-24.82,13.82-.04,25.45-6.62,38.48-8.52,5.63.56,29.91,6.34,31.15,11.26.47,1.86.94,5.06-.44,6.55-2.13,2.3-1.35,4.69-2.09,6.53l1.78-.02c-.38,16.38,11.64,32.26,27.47,31.63,13.75-.55,28.06-17.18,22.64-28.61,1.36-.02,4.54.7,5.69-1.14,2.69-4.28,2.09-9.48,1.62-14.4,2.5-1.44,5.57-.42,7.75-3.25l-16.3-15.99c-5.64-1.35-12.56-2.06-18.13-5.31-22.01-12.84-30.13-11.5-52.49-18.72l-1.61-.26c-.81-.13-1.66.04-2.47-.08-1.1-.16-3.27.18-3.34-1.36-1.77.15-3.77-1.05-5.5-1.09-.91.51-2.03,1.82-3.33,1.16-.93-.47-2.37-1.11-1.42-2.28-1.4.22-2.84-.55-4.19-.48-1.17.06-2.17.53-2.94.5-1.19-.04-2.63-1.27-2.01-2.5.47-.93,2.53-1.17,2.73-1.93.48-1.81.81-3.81,2.56-4.86.09-1.52.52-3,.72-4.5,1.05-7.75,1.67-15.19,1-24.39,8.12-.76,17.57,2.36,19.54,10.29.87.31,2.44,1.6,3.37,1.35,4.1-17.41-18.7-17.59-7.67-21.87-6.19-7.77-16.66-10.15-24.82-16.05l-26.46-19.16c-2.3-1.66-5.05-2.08-7.22-4.2-2.38-2.33-7.94-1.35-10.2-4.16l-18.45,1.29-2.92.29c-.55,1.25-1.72,2.26-3.05,2.63-19.97,5.58-33.75,22.05-31.52,43.88.63,6.16-2.52,12.02-1.58,17.79l4.24,25.95,4.29,15.61c.87,3.17-4.33,6.35-7.12,7.97-12.12,7.05-20.99,15.81-29.14,27.1-14.19,19.64-27.07,39.62-39.99,60.12-5.33,8.45-6.28,16.79-7,26.52-2.78,37.66,5.75,42.57,7.31,64.45.06.81.21,2.29.45,3.02l5.62,17.23c1.83,2.53,6.63,1.55,9.57,3.26-4.95,19.47,5.49,38.18.92,51.65-3.1,9.12-9.15,19.87-5.01,29.96,5.78,2.57,12.74,7.03,18.47,11.23,11.74,8.59,29.95,7.12,41.42-.77,4.09-2.81,1.31-9.3,1.77-12.45-3.75-2.33-6.31-4.85-9.85-6.52,3.96-3.73,2.45-7.6-.21-10.46-2.57-.06-5.8-.08-7.87-1.67-2.01-1.55-2.57-5.55-1.77-8.47,4.23-15.35,4.54-30.35,7.12-46.21,1.17-7.18,11.02-12.17,16.65-12.57.72,4.91.44,7.82,2.49,10.02,1.28,1.37,5.5.59,7.89,1.96,1.69,12.23,4.14,25.81,7.38,37.8,1.61,5.95-.69,9.87-3.06,14.21-3.65,6.68-2.61,21.18-3.86,30.18,6.75,3.83,13.91,1.67,21.27,1.77,11.02.15,29.23,11.64,50.72,6.28,4.65-1.16,8.6-3.56,9.16-7.57,2.8-20.03-14.03-5.39-23.59-21.7ZM1481.06,420.47c-2.5-3.14-5.56-5.84-7.6-10.29-1.13-2.47,4.49-6.47,6.01-4.79,3.28,3.61,1.71,8.88,1.58,15.09Z"></path>
      <path class="cls-3" d="M1004.25,380.79c-14.99-12.12-13.78-26.84-25.09-43.64-2.52-3.74-3.63-7.77-1.84-12.63-12.12-7.55-23.12-15.54-33.64-25.24-21.75-20.04-38.23-16.39-40.4-20.34-2.16-3.93,2.99-7.39,7.03-18.96,1.19-3.39,5.36-6.51,4.22-10.95.87.93,1.32.32,1.8-.36.78-1.11.33-2.22.45-3.17.38-2.83.79-5.66.67-8.53,4.54-7,5.42-16.09,5.53-24.38.01-.82-.35-1.84-.15-2.62-2.71-1.79-1.98-6.13-5.29-7.23-.08-.89-.38-1.81-.34-2.7.18-4.44-4.31-7.69-5.04-12.16-.56-3.44-.03-6.98-4.25-8.93-4.24-1.95-4.21-7.36-6.85-9.76-2.14-1.94-7.58-.54-6.69-4.78.13-.62-.18-1.44-.43-2.3-.33-1.16-1.66-.76-2.7-.64,3.95,7.48-13.37,1.08-17.3.03-2.14-.57-6.1-.44-8.28-.03-17.71,3.32-33.63,10.47-47.89,22.11-16.75,13.69-33.27,36-22.81,58.93l2.12-9.18,3.95,16.85c8.2,3.83,12.67,13.57,8.69,21.27-.33,2.05-.37,5.36-.07,7.49,6.68,1.56,10.3,11.87,16.27,16.12,4.83,3.45,9.56,6.17,13.73,9.51,1.66-.6,3.77.21,5.47.12,2.84-2.21,7.04-2.48,10.63-.52-1.43,6.28-4.74,10.32-8.95,13.27-.89.62-1.2,2.36-2.54,2.56,1.53,2.29,5.72-.45,7.83,1.04,3.5,2.46,1.87,8.51,1.92,12.07l.21,17.11c1.79.66,1.01,3.32.97,4.84-.02.8.28,1.86.01,2.61,1.97,1.14,3.03,3.74,3.78,6.37,2.63,9.24,7.08,16.93,10.58,25.12.46,1.09,1.22,3.09,1.84,4.02,1.44,2.18,1.64,6.33-.21,9.11-1.13,1.7-1.74,2.4-3.09,3.87-8.23,8.92.99,12.68-5.29,13.37.01,1.34.28,2.7.21,4.04,3.09.93,4.66,3.97,5.25,7,2.35,1.64,3.57,5.55,3.49,8.11,3.1,1.05,5.43-.16,6.88-3.68.45-1.09,1.43-2.26,2.17-2.46,1.65-.43,2.27,1.93,2.36,3.84.05,1.07.09,2.3.53,2.63.77.59,10.88-2.48,9.45-14.31-.43-3.58,1.17-9.02,5.44-9.45,9.24-.94-.68,29.51-.62,29.21-6.49,30.53-14.86,36.04-20.99,72.1l-6.06,35.64c-.38.04-.99.44-1.41.38-7.65-1.08-14.53.87-19.56,6.82l-.09,4.68c5.7,5.28,13.34,9.35,21.48,9.77-5.58.93-.15,13.51-1.45,23.08-.25,1.82,1.43,3.77,1.32,5.48l14.36,4.24c-1.68-.5,25.24,2.23,25.43-8.79l.27-15.33c8.26-.58,16.77.63,25.6-.6,7.35-1.02,14.37-5.04,21.95-4.8,7.87.24,15.54,1.92,23.41.04,6.37-1.52,9.2-6.2,9.46-12.11.04-.83-.08-1.67-.12-2.49-3.85-4.86-.9-11.14,2.93-15.44-.23-.93.24-2.02.08-2.97-1.42-.56-.98-2.3-1.59-3.3-1-1.65-1.43-3.34-1.56-5.26-8.46-5.96-3.03-17.47,3.05-24.49-.36-1.65.07-3.97.07-5.71-.01-5.01-1.38-33.15,5.33-33.52.3-1.19-.23-2.78.27-3.9,2.76-6.21,3.52-12.78,4.57-20.16l4.27-30c1.79-12.59-.33-23.6-4.6-34.7-.27-.7.07-1.61-.15-2.32ZM926.43,546.53c-3.8-.48-6.19-4.58-4.98-8.38l2.75-8.71c.68-2.14.85-4.48,2.18-5.26,1.35-.79,5.66-2.43,5.82-.58l1.51,17.58c.34,3.95-4.75,5.67-7.29,5.35Z"></path>
      <path class="cls-3" d="M806.05,366.49c3.25-5.36,5.62-8.36,7.09-14.19-10.01-3.88-20.18-7.57-30.39-6.35,0,.62.09,1.67-.17,2.23-2.02,4.4,2.52,9.69,1.06,14.68-2.33,7.95-20.14-7.09-25.1-14.5-2.48-3.71-5.59-6.18-9.02-8.15l.17-4.79c6.56-9.53,7.72-39.02,6.72-51.26-.82-10.04-7.23-17.97-13.23-24.94-10.1-11.72-23.1-15.46-37.77-17.46-20.16-2.75-38.47,2.03-52.37,17.59-12.18,13.64-23.34,28.56-31.61,45.17-3.6,7.22-3.99,15.47-.11,22.35,3.39,6,10.14,11.55,17.78,11.55-1.32-9.38-17.01-16.37-12.88-32.83l6.71,14.96c2.96,6.61,9.03,11.02,10.42,17.87.64.3,1.04,1.05,1.62,1.4.5.31,1.54-.11,2.11.31,1.02.75.61,2.04.42,3.02-.16.81.11,1.71.07,2.52,2.62.52,1.77,3.71,1.87,5.73.09,1.88.34,3.85,0,5.73,2.03,1.27,2.54,3.71,2.72,5.96.23,1.33,1.6,2.12,2.55,2.72,3.45-.38,4.5,3.3,6.05,5.81.98.69,1.21,2.49,2.74,2.72.64.41,1.16.98,1.52,1.65,8.58,6.12,8.47,7.52,18.84,9.9-12.06,8.48-21.88,18.06-30.95,29.24-3.05,3.75-6.89,6.61-11.1,8.93-27.7,15.25-36.52,30.34-51.53,38.4-6.93,3.72-13.31.76-20.19-.25l-25.49-3.74c-3.46-.51-8.43-3.2-9.91.98,5.45,4.04,3.74,1.67,4.18,4.92-4.09,2-6.68,6.08-7.51,11.35-5.83,1.78-11.38,1.53-16.77,1.91-.52.57-2.28.08-2.87.66-.77.76-1.34,1.8-1.33,3.4l.14,27.21c26.75,11.53,22.59,5.62,34.83,2.33,3.27-.88,5.42-2.5,6.56-4.96-.76-3.9.01-7.84.41-11.75,5.23-1.46,10.64-3.35,16.32-4.07,2.05,3.93-1.48,7-1.76,10.55-.4,5,4.82,7.98,7.91,10.68,5.61,6.5-16.58,1.15-24.27,19.1-1.27,2.96-2.15,6.16-.84,8.05,5.07,7.32,11.49,1.23,23.64,3.03l20.1,2.99c.43,1.18,1.72,1.46,2.87,1.43.46-.01.99.32,1.43.23.12.98-1.55,1.51-2.92,1.31l-20.01-2.97c-.71-.1-1.34.36-1.37.82-.05.8-.04,1.76.08,2.2.37-.01.76,0,1.11.05l21.54,2.72c6.43.81,9.95.87,14.71,5.3,7.83,7.3,17.13,12.75,28.13,12.2l1.28,8.84c5.71,2.68,10.82-.36,16.17-4.36-.67-1.77-15.29,5.75-14.28-.02,4.32-1.04,8.1-.89,11.25-2.25l3.02.61c20.19,5.47,18.75,39.07,39.25,22.55,7.72-6.22,2.88-15.46,3.9-21.6l1.65-.18c24.18,9.22,27.01.14,37.46.3,10.31.16,25.54,6.27,35.61-.47,14.79-11.11,25.54-30.36,30.3-48.35,4.53-17.11-5.27-57.16-10.06-75.23-3.51-13.24-12.18-23.77-18-35.96-7.28-15.26-17.35-27.63-27.85-41.8,11.25,2.12,17.19,10.68,26.89,13.61,2.92.89,7.14-.41,7.88,3-1.56,1.92-7.26,5.74-4.89,8.96,4.22,5.74,12.47,11.68,19.79,12.74,4.89.71,6.8-7.16,7.47-10.51,13.1,9.71,7.05,1.41,20.06,8.95,4.92-7.95-.18-14.04-3.26-20.78-3.79-8.28-7.15-15.71-16.61-19.72ZM556.83,484.61c-1.34,1.07-2.95,1.31-4.51,1.22-.17-1.86-.68-3.68-1.69-5.27-.05-.67.09-2.46,1.32-2.44,2.75.05,4.45,2.08,6.52,2.39.02,1.58-.48,3.17-1.65,4.1ZM655.15,474.77c-5.68,2.28-11.56.3-19.71.81,3.19-4.63,9.21-4.97,13.99-7.61,6.71-3.7,12.48-11.12,19.73-13.39,1.22-1.41,2.66-3.73,6.17-2.94,1.22.27,1.83,1.85,1.3,2.18l-1.75,1.09c-.68.42-.19,2.46-.16,3.61.04,1.69.02,3.41-1.11,4.79l-.35,4.09c-.28,3.24-1.15,6.59-2.53,10.23-3.85-.7-14.38,0-11.4-2.58-1.19-.01-3.09-.5-4.17-.28Z"></path>
      <path class="cls-3" d="M1831.92,461.41c-.78-7.84-.7-14.29.75-20.88.39-1.77-.18-5.22-.27-7.01-.69-1.77-.34-5.14-2.68-5.72.42,2.16-.98,4.02-1.33,6.05-.36,2.14-1.2,3.72-2.4,5.45-1.37,1.99-1.09,4.87-1.69,7.06-.84,3.07-1.11,6.94-3.99,8.66.16.38-.03,1.03.02,1.44.12,1.24-1.56,1.9-1.71,2.9-.15.96-1.35,2.14-1.37,2.94.37,1.76-1.38,2.8-1.62,4.11-.54,2.89-3.56,4.93-4.29,7.5-.67,2.39-2.33,3.85-3.23,5.88-4.34,9.76-11.26,17.87-16.79,26.92-.17.28-.18.76-.23,1.08-1.21-.02-2.46.39-3.02,1.54-1.73.14-3.56.24-5.3.21l-3-1.62c-.5-.27-.96-.87-1.34-1.29-7.06-7.97-17.23-10.68-28.31-8.09-19.97,4.67-17.39-8.29-38.57-9.69-1.76-.12-3.97-1.47-3.71-2.96.61-3.53,6.76-2.85,11.83-8.77,2.39-2.79-.25-6.72.79-10,3.35-10.58,5.34-20.5,3.77-31.06l-.37-2.5c-34.87-39.89-31.28-16.32-58.1-28.01-3.69-1.61-8.42-1.34-10.46-4.56-1.46.08-2.96-.34-4.41-.37-1.78.98-3.78,1.43-5.8,1.55l-1.66,1.54c-2.1,4.17-2.9,8.98-5.72,12.75.2,2.42.64,4.9.52,7.34,5.41,3.18,4.58,10.12,2.58,15.55-.04.77.68,1.82.42,2.57,6.14,3.9,11.37,8.49,18.95,10.99,2.35.77,1.4,5.84.2,7.33l-9.82,12.21c-.13.8.33,1.72.15,2.5-1.44,6-3.39,12.76-9.85,14.38l-1.72.43c.77,1.29.33,3.65-.15,5.66-.29,1.21-1.67,2.28-3.55,2.22l.08,2.18c1.12-.82,1.9-.85,2.58.08.77,1.05,1.59,2.08,1.19,3.66l-2.59,10.45c-1.3,5.27.64,11.73-3.1,15.72l-9.52,10.17c-7.81,8.34-14.75,13.53-25.09,16.84l-14.79,13.11c0,.94.92,1.58,1.08,2.37,4.28-.23,7.17,5.15,11.52,5.35l26.37,1.18c7.51.34,15.53,1.86,20.24-5.03,3.79-5.54,9.58-7.4,15.05-10.66,6.31-3.76,11.17-9.5,18.22-10.69,1.74-.29,3.77-.28,5.52-.05,10.99,1.45,21.04,8.61,28.89,16.84-1.25,3.57-5.17.82-6.86,1.17-9.57,1.99-16.32,10.28-17.75,19.35.12,1.29,1.28,2.06,1.84,3.08l39.92-.27c1.48,0,2.92.44,2.8,1.5,3.49-.5,7.87.05,11.46,0,6.13-.09,36.53,1.23,36.29-12.49-.09-5-6.77-6.72-9.07-10.2.25-.79.12-2.49.14-3.34,2.97-5.1,8.5-8.64,11.49-14.15l5.39-9.94c-.12-1.31.48-2.64.46-3.93-.08-5.45-1.15-11.66,2.48-16.03.94-.22,2,.11,2.92-.17,3.93-1.19,9.78-.26,13.04-4.41,4.97-6.34,13.6-12.59,16.23-20.09,2.34-6.67,5.11-11.98,9.16-16.66,1.19-5.91-1.96-17.23,7.89-19.66-3.16-1.38-6.8.67-7.02-1.55Z"></path>
      <path class="cls-3" d="M604.24,563.84c-6.81-7.31-32.88-3.96-42.31-4.32-1.25,1.23-1.82,2.56-2.78,3.9,1.71,8.05.86,17.15,1.51,26.2,14.3,11.05,26.74,5.64,44.25,3.47-.4-9.82,1.78-19.47-.66-29.26Z"></path>
      <path class="cls-3" d="M1348.53,125.49c-19.91-17.31-47.76-28.55-72.74-14.01-17.72,10.31-27.71,26.86-32.31,46.75-4.47,19.36-6.17,38.59.25,57.71,5.81,17.31,13.8,19.94,28.83,25.46-14.48,15.76-19.15,34.76-21.37,54.75-.1.86-.25,1.8-.19,2.66.63,9.29-.95,18.64-1.13,28.62l-.46,25.8c-.32,17.88,19.17,14.17,8.93,21.45.36,1.05.41,3.12.32,4.29,3.3,2.2,3.21,6.7,3.69,10.35l.31,2.32,1.5.05c.94.07,1.87-.25,2.79-.3,1.72-4.31,6.63-5.56,9.31-9.1.97,1.26,2.37,2.18,1.85,4.26-3.28,6.19-3.17,13.45-5.4,19.93l-.42,3.99-4.4,44.55c-.36,3.68-.66,7.29,2.19,9.95,2.01,1.87,5.7,3.11,9.08,2.82.29,1.47-.12,3.34.35,4.71-9.66,4.58-13.68,24.56-19.61,27.42-.23,1.84-.86,3.58-1.55,5.29-.16.4.08.97-.02,1.4l-.31,47.19c-.02,2.48-1.63,4.39-3.75,5.56-3.14,6.55-1.67,14.48-1.69,21.55.53.68,1.36,1.53,1.2,2.41-.18.98-.09,2.76-1.45,2.39.28,1.31.17,2.8.36,4.14,4.56,2.2,9.83,2.91,14.02,5.75,1.31-1,4.13.4,5.56-.29,7.59-3.69,15.49,1.22,23.14,3.05,4.49,1.07,12.7-.33,16.93-.33,1.32,0,2.98-2.93,4.77-.9.73-.22,1.75.24,2.44-.06,7.02-3.11,12.31-7.59,15.97-14.36l-.27-6.96c-1.15.89-1.87-.3-2.29-1.21-.28-.62-.22-1.35-.48-2.02-.21-.48-.93-.77-1.21-1.24-16.16-2.09-16.95,7.92-34.56-7.09-2.27-1.94-5.34-3.41-4.05-6.34.15-.35-.05-.94.19-1.23-.38.08-2.13.54-2.24-.12l-.99-5.78c-.14-.83.19-1.75.08-2.59l1.41-.02c-.55-1.49,1.03-3.06,1.2-4.24-1.14-2.89,6.76-25.38,8.79-27.38.06-.85-.06-1.73.05-2.58.2-1.51-.42-3.98,1.29-4.67l.46-3.79c1.6-13.23,7.56-25.87,17.57-35.31l22.86-1.55c2.15-.15,4.66-.54,5.74-2.07,1.04-1.47.5-3.72.54-5.44.97-.41,2-1.88,3.39-1.74,1.89.19,4.04.49,7.06-.46-1.07-35.54-6.49-70.14-11.49-105.73-.69-4.93,2.01-10.32,1.75-15.73-1.17-25.07-6.04-49.52-17.21-71.95-1.29-2.59-5.31-5.9-2.49-8.81,2.81-2.9,6.93-4.37,8.8-7.63-.7-.29-.81-2.17-2.13-1.76-.45.14-1.11.2-1.58.15-.63,1.65-3.03,1.1-4.46,1.41-.46.1-.96.03-1.43.06.31.87-.15,1.14-.86,1.15-.84.01-2.66.29-2.11-.94-1.43.1-2.9-.15-4.27-.58-6.04-1.9-10.17-6.63-15.35-10.05.08-1.65.02-2.69,1.07-3.98,5.39.94,9.35,5.22,14.62,6.66,1.63.45,3.84-.33,5.4.27,4.76-3.9,9.94-7.34,14.5-11.5,2.45-2.24,4.24-5.76,8.16-5.89-1.05-1.14.38-1.93,1.25-2.3.66-.28,1.33-.39,1.97-.4l1.31-.05c.74-9.8-4.27-7.14-1.03-21.2.09-.38.05-.88-.02-1.26,13.97-10.53,18.15-7.71,25.68-23.39l-.03-2.51c-.05-3.98.04-7.95.04-11.92v-3.82s-6.46-9.83-6.46-9.83l-25.15-21.86Z"></path>
      <path class="cls-3" d="M515.17,459.14c-2.57-10.14-6.63-18.35-10.36-27.39-3.59-.44-6.15-.28-8.83-.15-36.84-18.63-38.51,12-72.16,1.93l-45.51-13.61c7.76,2.32-56.44-24.91-52.03-24.8,10.77-2.16,12.47,12.54,26.9-.29,3.39-3.01,7.53-4.14,9.39-9.34,1.63-4.56,6.62-10.28,6.88-15.17-5.73-19.01,13.47-16.57,17.15-39.23,3.97-24.45-5.2-38.09-21.13-54.05-7.44-7.46-15.84-12.66-26.01-15.5-.78-2.03-1.27-3.63-2.56-5.1-4.95.92-9.01,2.77-14.67,1.5l10.25-8.34c1.6-1.3,5.07-2.2,7.1-.9,1.49.95,1.13,3.01,1.86,6.98,3.07-2.32,2.17-5.61,1.76-8.23-.43-2.75-2.49-6.97-6.11-6.07-6.36,1.57-9.77,7.6-15.83,9.82-.3-3.58,2.78-5.22,3.48-7.76,1.72-6.22-4.19-12.7-4.26-18-.17-12.08-5.51-16.78-14.5-22.41-3.93-2.46-5.19-6.6-11.35-7.61-9.36-1.53-17.58-2.48-27.2.3-21.99,6.37-24.51,14.07-28.14,35.1.18-1.05-4.85,15.25,1.71,14.64.46-.04,1.08.17,1.53.27-2.56,4.05,1.12,6.2,2.8,9.47,3.42,6.67,5.36,12.55,11.88,17.09,1.84,1.28,2.48,4.25,5.35,3.08,1.05-.43,2.87.44,4.32,1.65-10.15,8.6-5.21,29.32-2.04,31.09,1.12.62,2.65-1,5.43-1.02-4.88,23.05,7.43,32.54,11.81,51.4-1.52,3.97-8.15,8.24-12.03,10.25-15.32,7.94-27.19,18.2-37.45,31.91-9.76,13.05-20.55,25-27.41,40.02l-17.05,37.36c-5.39,11.8-7.59,24.29-7.47,36.49.01,1.24.96,3.3.26,4.47,2.08-.4,1.11,1.46,1.6,3.31,3.6,13.64,8.01,28.11,17.76,39.08,4.95,5.56,16.22,6.76,23.09,6.97,9.91.3,16.03,3.45,24.46,7.16,15.08,6.63,35.36-4.59,72.57,7.79,8.49,2.83,17.6,2.97,26.56,3.98,3.5.4,6.51-2.24,7.5-5.05,4.39-12.4,18.45-6.63,38.78-18.02,3.03-1.7,5.13-3.03,8.1-3.32,3.92,6.73,25.06,7.41,32.42,8.45.65-1.21,3.7-1.29,4.84-2.29,1.94-1.69.24-3.12-.19-5.15-9.41-2.68-20.71,5.72-24.29-.71,3.94-.91,7.73-2.09,11.45-3.6,6.16-2.5,13.12-4.82,17.41-11.31,2.48-3.76,1.46-12.95-2.62-15.6-7.85-5.1-17.89-6.49-26.01-4.5-6.35-2.79,7.45-8.34,1.74-22.29-6.34-15.49-27.2-16.01-41.7-10.22-13.33,5.32-30.12.6-32.7-11.14-2.15-9.76-5.26-19.32-9.64-29.26l24.22,2.02c6.81.57,12.4-.62,19.16.82,20.9,4.46,41.82,3.94,63.19,1.21,10.69-1.36,22.21-2.34,30.21,4.19l2.81.37c.09,2.69-1.01,8.32,2.57,10.22,11.16,5.92,32.06-4.23,40.93-12.98ZM266.66,292.92c-1.4-3.1-1.37-6.35.96-8.64,1.63-1.6,4.75-5.57,7.66-3.29-2.99,5.8-5,8.32-8.62,11.93ZM296.97,490.75c1.4-4.72,3.28-8.63,7.89-9.62,1.73,2.55,2.31,5.39,2.63,9.35-3.94,1.33-7.16,1.62-10.52.27Z"></path>
      <circle class="cls-3" cx="1547.62" cy="559.64" r="1.6"></circle>
      <circle class="cls-3" cx="1548.34" cy="563.22" r=".72"></circle>
      <path class="cls-3" d="M477.34,530.03l1.19,29.35c19.06,6.85,23.81,8.34,43.1,1.59-.1-10.02,2.24-18.88.83-27.97-12.66-9.82-29.53-4.09-45.12-2.97Z"></path>
      <path class="cls-1" d="M93.43,552.28c-6.72-4.82-16.88-19.45-19.16-26.26-.67-1.98-1.95-4.12-3.99-4.39-3.68,8.67-19.21,36.99-30.47,32.36-9.74-4-1.06-28.64,2.43-36.16,1.43-3.09,3.28-5.78,3.87-9.73-9.72,3.26-43.34,8.12-46.01-3.41-.41-1.75.47-3.52,1.65-5.24,7.47-10.52,26.38-14.74,39.39-17.96-10.9-7.45-19.99-15.7-25.94-27.06-1.82-3.47-3.64-8.26-.64-11.44,6.59-6.99,25.74,4.85,32.18,9.21,3.71,2.51,6.52,5.88,10.86,7.88-.37-11.74.84-34.79,9.68-42.55,2.87-2.52,6.29-1.78,8.8,1.08,6.99,8,8.72,24.71,8.73,35.26,0,2.24-.81,4.6.99,6.27,7.75-7.8,31.52-23.86,41.19-17.78,7.39,4.65-5.29,21.74-9.5,25.58l-8.23,7.52c-2.38,2.17-5.7,3.44-7.2,6.55,12.1,2.32,23.31,5.62,33.53,12.13,4.27,2.72,9.46,9.29,4.93,13.62-4.73,4.52-13.45,4.68-19.8,4.65-13.25-.06-27.6-7.43-22.55,1.16,5.53,9.4,11.82,29.03,6.84,38.8-2.19,4.31-8.44,2.19-11.58-.06Z"></path>
      <path class="cls-1" d="M1742.41,201.26l-5.26,7.95c-1.47,2.22-1.57,5.2-4.41,6.6-3.84-21.67-17.5-38.08-37.9-48.05,23.02-4.82,39.92-18.55,48.7-39.1,2.08,10.86,5.93,19.5,11.59,28.01,6.73,9.67,15.81,16.03,27.09,21.65-15.86,3.14-31.06,9.71-39.8,22.94Z"></path>
      <path class="cls-2" d="M533.73,151.15c-.14,6.02-1.93,23.86-9.54,24.77-11.79,1.4-10.61-38.49-11.62-46.99l-13.26,20.96c-3.41,5.4-12.64,17.78-19.62,14.34-10.25-5.04,10.64-38.41,14.09-46.69l-20.17,10.87c-5.32,2.87-22.19,10.63-26.05,3.98-.99-1.72-.83-4.8.25-6.74,7.4-10.57,24.41-19.53,35.5-26.92-9.16-.92-48,1.88-47.89-10.85.06-6.69,16.32-8.98,21.58-9.3l25.98-1.58c-6.84-4.77-41.65-22.17-35.94-32.56,5.78-10.51,37.42,9.89,46.25,13.45l-11.94-23.23c-2.5-4.87-7.29-17.67-3.47-21.72,9.76-10.36,30.08,28.23,34.81,34.79.69-14.05-.65-33.13,5.39-44.44,1.39-1.93,3.21-3.35,5.23-3.29,11.68.34,9.93,38.51,11.06,47.71,5.39-7.7,21.99-41.9,33.26-35.89,5.04,2.69.82,15.63-1.4,20.17l-12.63,25.74c9.32-3.26,38.49-24.06,45.94-14.06,6.96,9.35-28.77,28.27-35.04,33.38,11.35.74,35.6-.3,43.97,5.78,2.18,1.58,4.07,4.24,2.68,6.81-5.08,9.41-37.09,8.59-47.52,8.92l19.48,12.17c5.95,3.72,11.49,7.68,15.68,13.34,2.03,2.74,2.71,7.62-.62,9.47-9.15,5.08-34.8-11.2-44.55-15.64,5.48,12.8,16.27,26.55,16.95,40.21.18,3.65-2.61,7.43-6.38,6.56-10.55-2.46-23.88-27.62-29.94-36.58l-.55,23.05Z"></path>
    </g>
  </g>
</svg>