<?xml version="1.0"?>
<svg fill="#11302d" id="Capa_2" data-name="Capa 2" xmlns="http://www.w3.org/2000/svg" viewBox="0 0 1242.2 1308.78">
  <defs>
    
  </defs>
  <g id="Capa_1-2" data-name="Capa 1">
    <path class="cls-1" d="M935.68,207.4c1.93,3.96,27.2,47.77-58.06,95.53-18.58,10.41-16.35,38.31-5.26,55.92,10.94,17.38,31.8,25.08,51.92,19.18,86.99-25.54,221.16-85.95,282-159.55,20.04-24.24,30.67-55.41,27.53-86.7-12.41-123.57-211.82-147.23-367.47-123.63C408.45,71.9-150.49,558.02,37.33,1047.05c196.13,442.14,846.15,255.24,1084.96-54.52,279.69-310.9,32.74-696.46-356.18-517.91-127.21-161.43-408.57,15.44-401.24,233.45,4.74,89.92,25.4,160.39,59.25,151.1,41.85-24.97-25.12-119.22,96.79-225.23,62.59-54.43,162.04-1.67,129.98,96.75-8.43,23.92,24.65,41.67,39.83,20.93,19.73-22.94,65.92-76.66,121.59-115.36,64.58-44.9,128.09-41.2,165.91-23,127.51,74.72,4.22,249.17-106.8,334.74-138.87,107.02-253.77,144.78-394.73,125.64-218.91-59.94-271.44-253.42-164.62-489.3,89.79-216.19,313.05-327,405.25-359.6,0,0,191.81-71.78,218.35-17.33Z"></path>
  </g>
</svg>