<?xml version="1.0"?>
<svg fill="#ffffff" id="Capa_2" data-name="Capa 2" xmlns="http://www.w3.org/2000/svg" viewBox="0 0 2706.02 439.3">
  <defs>
    
  </defs>
  <g id="Capa_1-2" data-name="Capa 1">
    <path class="cls-1" d="M671.62,248.97V88.04s0-34.66,38.79-36.96c31.75,4.52,34.6,27.53,35.12,42.3,2.48,70.41-.18,282.79-.18,282.79-.05,9.33-10.83,16.63-20.29,16.58-16.36-.08-26.09-6.69-38.32-18.88-4.5-4.48-8.28-9.51-11.27-14.88-24.28,26.4-55.51,39.65-93.31,39.47-40.22-.19-72.05-11.68-94.61-34.17-26.52-26.43-36.64-64.27-36.35-119.79V88.76c.11-21.48,16.96-37.68,36.79-37.68h1.61c38.87,4.8,35.52,40.29,35.52,40.29v149.23s-3.34,74.22,73.14,79.37c60.1-1.35,74.4-57.77,73.35-71Z"></path>
    <path class="cls-1" d="M1214.29,87.92c24.73-24.91,53.94-48.37,90.67-40.59,20.69,4.38,25.53,25.13,25.53,25.13,10.51,45-44.84,56.2-44.84,56.2-39.79,10.96-64.66,48.14-64.91,97.05l-.69,137.54c-.09,17.32-13.41,30.32-30.99,30.24l-12.2-.06c-9.65-.05-19.35-4.21-26.6-11.42-7.25-7.21-11.38-16.8-11.33-26.31l1.34-265.76s2.41-34.03,38.6-34.9c32.32,2.56,35.41,32.88,35.41,32.88Z"></path>
    <path class="cls-1" d="M2680.3,87.43c-22.94-22.71-60.27-34.84-107.95-35.06-24.55-.11-59.94,3.6-89.17,21.92-27.82,17.44-42.93,44.21-43.69,77.41-.56,24.43,7.63,45.04,24.35,61.26,14.87,14.43,35.81,24.87,64.02,31.92l65.55,16.38c36.5,9.71,39.29,20.99,39.02,32.67-.3,13.14-6.05,22.76-17.59,29.41-11.37,6.56-28.08,9.97-48.3,9.88-19.55-.09-35.8-3.19-47-8.96-11.17-5.76-17.22-13.96-19.05-25.82-1.15-7.42-7.91-13.27-15.4-13.3l-41.27-.19c-7.19-.03-12.69,5.31-12.76,12.4-.24,23.28,8.34,44.3,24.82,60.8,24.37,24.4,63.77,37.42,113.93,37.65,35.08.16,67.28-7.74,90.65-22.26,28.53-17.72,44.01-44.78,44.78-78.25.56-24.37-7.73-45-24.62-61.3-14.89-14.37-35.73-24.79-63.74-31.89l-63.16-15.8c-41.32-10.29-41-24.06-40.83-31.46,0-.08,0-.15,0-.23.21-35.21,42.76-39.48,61.03-39.68.91,0,1.79-.01,2.68,0,55.9.26,59.41,26.41,60.57,35.1,1.01,7.54,7.84,13.55,15.44,13.58l40.63.19c7.25.03,12.77-5.4,12.76-12.56-.05-25.12-8.94-47.18-25.72-63.8Z"></path>
    <path class="cls-1" d="M1066.47,78.33c-26.96-19.24-65.51-29.51-111.47-29.73-63.27-.3-116.02,21.28-148.54,60.74-11.59,14.07-13.93,33.08-6.09,49.59,7.93,16.7,24.37,27.13,42.92,27.21h2.81c6.33.04,11.9-4.14,13.59-10.2,10.85-38.99,43.93-60.34,93.14-60.11,46.56.22,71.6,17,71.52,32.68-.08,16.83-30.74,26.36-80.11,36.25-4.75.93-9.54,1.84-14.34,2.76-75.85,14.49-161.82,30.91-162.21,107.74-.15,30.03,13.33,55.16,38.97,72.66,23.97,16.36,57.84,25.1,97.96,25.29,49.32.23,92.92-13.29,125.39-38.49,3.67,31.78,31.11,38.32,54.72,38.43l11.83.06c7.75.04,14.06-6.17,14.09-13.85v-212.73c.18-37-15.1-67.54-44.2-88.3ZM1024.49,243.6c-.18,36.75-25.05,69.04-60.46,78.52-15.36,4.11-31.79,6.25-47.52,6.18-29.14-.14-63.13-8.77-63.01-32.64.12-24.76,34.59-33.41,91.35-44.73,3.79-.75,7.59-1.51,11.33-2.27,27.09-5.32,49.99-10.98,68.39-19.19l-.07,14.12Z"></path>
    <path class="cls-1" d="M2353.24,79.2c-26.78-19.11-65.07-29.32-110.73-29.53-62.85-.29-115.25,21.13-147.54,60.34-11.52,13.98-13.83,32.86-6.05,49.26,7.87,16.59,24.21,26.95,42.64,27.03h2.79c6.29.04,11.82-4.12,13.5-10.14,10.78-38.73,43.64-59.94,92.52-59.71,46.25.22,71.12,16.89,71.04,32.46-.08,16.72-30.54,26.18-79.57,36-4.72.92-9.47,1.83-14.24,2.74-75.34,14.39-160.74,30.7-161.12,107.01-.15,29.83,13.24,54.79,38.71,72.18,23.81,16.25,57.45,24.93,97.3,25.12,48.99.23,92.29-13.2,124.55-38.23,9.6,19.65,29.86,33.28,53.32,33.39l11.75.05c7.69.04,13.96-6.13,14-13.76l1.04-206.52c.18-36.76-15-67.09-43.91-87.71ZM2311.53,243.37c-.18,36.5-24.88,68.58-60.05,78-15.25,4.09-31.58,6.21-47.2,6.13-28.95-.13-62.71-8.71-62.59-32.42.12-24.59,34.36-33.19,90.74-44.43,3.76-.75,7.54-1.5,11.25-2.26,26.91-5.29,49.66-10.91,67.93-19.06l-.07,14.03Z"></path>
    <path class="cls-1" d="M1571.05,289.11c-22.58,21.08-53.72,37.22-91.3,37.05-54.34-.25-90.42-31.49-96.91-82.51l258.79,1.21c11.8.05,21.61-9.42,21.87-21.13,2.23-98.84-70.58-168.22-177.06-168.72-51.15-.24-97.9,15.94-131.63,45.57-34.61,30.39-54.27,73.92-55.36,122.56-1.13,50.01,15.9,92.68,49.25,123.41,32.31,29.77,76.91,45.63,128.97,45.87,61.53.29,103.04-13.66,141.71-45.61,0,0,20.33-16.13,23.98-31.01,3.65-14.88,2.53-34.96-21.84-44.72-24.72-9.91-39.58,7.86-50.48,18.04ZM1386.75,194.44c12.68-38.35,41.25-77.28,104.98-76.99,65.83.31,91.48,43.56,101.46,77.95l-206.45-.96Z"></path>
    <path class="cls-1" d="M1993.75,395.48c23.99-.21,38.19-19.1,38.17-43.09-.03-56.21-.07-149.81.03-173.77.14-33.52-12.12-106.41-112.69-126.73-100.57-20.33-156.06,37.32-156.06,37.32l-.82-32.59c-43.65-9.68-64.58,6.49-74.51,22.12-5.99,9.43-8.71,20.57-8.68,31.74l.68,245.85c.06,21.82,17.76,39.47,39.58,39.47h0c21.83,0,39.54-17.68,39.58-39.51l.25-134.76c.04-21.29,5.42-42.41,16.72-60.45,13.82-22.06,38.6-43.96,82.41-43.3.88.01,1.74.03,2.6.06,50.63,1.41,90.99,42.76,91.62,93.41l1.75,139.93s-3.78,44.64,39.34,44.32Z"></path>
    <path class="cls-1" d="M314.06,69.62c.65,1.33,9.13,16.03-19.49,32.07-6.24,3.49-5.49,12.86-1.77,18.77,3.67,5.83,10.68,8.42,17.43,6.44,29.2-8.57,74.23-28.85,94.66-53.55,6.73-8.14,10.3-18.6,9.24-29.1C409.97,2.76,343.04-5.18,290.79,2.74,137.1,24.13-50.51,187.3,12.53,351.45c65.83,148.41,284.01,85.67,364.17-18.3,93.88-104.35,10.99-233.77-119.55-173.84-42.7-54.19-137.14,5.18-134.68,78.36,1.59,30.18,8.52,53.84,19.89,50.72,14.05-8.38-8.43-40.02,32.49-75.6,21.01-18.27,54.39-.56,43.63,32.47-2.83,8.03,8.27,13.99,13.37,7.03,6.62-7.7,22.13-25.73,40.81-38.72,21.68-15.07,42.99-13.83,55.69-7.72,42.8,25.08,1.42,83.64-35.85,112.36-46.61,35.92-85.18,48.6-132.49,42.17-73.48-20.12-91.11-85.06-55.25-164.24,30.14-72.57,105.08-109.76,136.02-120.7,0,0,64.38-24.09,73.29-5.82Z"></path>
  </g>
</svg>