<?xml version="1.0"?>
<svg id="Capa_2" data-name="Capa 2" xmlns="http://www.w3.org/2000/svg" viewBox="0 0 884.13 365.65">
  <defs></defs>
  <g id="Capa_1-2" data-name="Capa 1" fill="#ffffff">
    <path class="cls-1" d="M377.41,263.37c-2.2-37.03-12.18-63.57-56.28-59.62-10.48.93-43.84,6.89-33.17,23.55,6.19,9.66,20.16.59,28.39-1.25,10.77-2.4,21.94-3.66,30.65,4.7,4.68,4.5,9.22,15.17,3.82,20.26-17.47-3.33-42.62-7.23-57.08,6.01-5.9,5.4-9.2,13.6-9.94,22.06-.38,4.47-.05,9.01.97,13.25.94,3.92,2.48,7.6,4.63,10.72,11.17,16.42,35.28,17.03,53.06,14.05,24.57-4.13,32.73-10.74,34.88-25.57.96-6.54.74-14.67.25-24.89-.05-1.09-.11-2.19-.19-3.27h0ZM354.17,287.95c-3.14,10.54-28.63,11.8-37.04,10.5-7.84-1.2-12.1-7.17-12.83-13.59-.21-1.9-.13-3.84.28-5.7,1.18-5.41,4.99-10.16,11.41-11.47,6.92-1.41,19.06-.2,27.86,4.15,6.1,3.04,10.6,7.58,10.64,13.81,0,.81-.1,1.57-.31,2.29h-.01Z"></path>
    <path class="cls-1" d="M249.68,240.79c1.21,10.93,7.27,19.95,5.32,32.37-.6,3.94-2.68,7.48-5.58,10.34-6.08,6.03-15.77,8.92-22.96,5.62-3.12-1.42-5.75-4.01-7.41-8.03-6.34-15.23-4.31-35.22-2.34-51.25.96-7.76,4.62-15.48-1.56-22.28-3.51-3.87-9.61-5.27-14.5-3.38-9.43,3.64-10.58,19.43-11.81,28.38-2.77,20.1-2.55,43.75,6.57,62.54.54,1.13,1.12,2.25,1.75,3.36.11.2.23.39.34.58,13.26,22.47,50.44,22.05,68.84,6.49,4.16-3.51,7.36-7.42,9.75-11.59,2.64-4.62,4.31-9.56,5.19-14.7,2.49-14.42-1.09-30.33-6.01-44.6-6.34-14-27.13-7.85-25.59,6.15h0Z"></path>
    <path class="cls-1" d="M131.05,194.17c-.45.07-.91.17-1.37.26-.04.01-.09.02-.13.02v-.03c-6.21,1.3-12.79,3.74-19.59,7.46-5.06-5.81-11.35-8.33-17.89-8.33-19.66-.08-41.66,22.63-39.41,47.41.3,2.81.71,5.49,1.2,7.96.52,2.66,1.14,5.07,1.85,7.12,1.59,4.64,3.66,7.49,6.04,7.45.36,0,.73-.06,1.11-.18,1.47-1.03,1.92-2.62,2.04-4.72.05-.97.02-2.04,0-3.2-.18-6.54-.64-16.11,10.29-27.08,2.72-2.73,6.03-3.93,9.22-3.84,7.05.26,13.36,6.87,10.7,17.33-.71,2.55,1.46,4.47,3.56,4.35.98-.02,1.97-.49,2.63-1.55,2.71-3.65,9.06-12.21,16.94-18.58,3.96-3.19,7.97-5.01,11.7-5.85,4.9-1.09,9.35-.51,12.61.87,12.38,6.46,10.15,19.94,2.87,32.49-3.01,5.19-6.88,10.23-10.96,14.55-1.56,1.67-3.17,3.23-4.76,4.66-4.3,3.84-8.47,7.15-12.55,9.98-.86.61-1.72,1.18-2.58,1.74-6.36,4.1-12.62,7-19.03,8.8-7.3,2.07-14.83,2.73-23.03,2.09-15.59-3.37-25.91-11.62-30.97-23.3-1.75-4.02-2.87-8.42-3.38-13.17-.84-7.66-.05-16.23,2.34-25.41.91-3.5,2.05-7.1,3.41-10.76,4.18-12.37,11.17-22.75,18.99-31.18,13.41-14.49,29.29-23.34,37.71-26.99,0,0,9.84-4.48,18.71-6.42,6.02-1.29,11.61-1.43,13.38,1.82.14.23.89,1.45.91,3.35.04,2.65-1.37,6.67-8.05,11.24-.2.14-.4.26-.61.4-2.64,1.76-2.08,5.97-.29,8.54.93,1.33,2.26,2.23,3.73,2.62,1.3.38,2.74.33,4.12-.19,12.62-4.66,31.91-15.04,40.25-26.73,2.75-3.86,4.05-8.68,3.31-13.39-1.64-10.43-11.69-15.57-24.2-17.21-9.81-1.28-21.14-.4-31.15,1.8-5.15,1.06-10.39,2.5-15.62,4.32-31.28,10.73-62.94,34.02-83.21,62.94-2.13,3.03-4.12,6.13-5.98,9.26-.27.45-.54.91-.79,1.36C3.62,228.18-2.28,250.19.81,272.33c.3,2.14.68,4.3,1.15,6.44,1.21,5.53,3,11.07,5.43,16.56,8.59,17.06,21.4,27.32,36.21,32.28,36.27,12.18,84.56-7.44,112.39-36.53.28-.29.55-.59.81-.87,1.92-2.05,3.73-4.13,5.43-6.25,1.77-2.21,3.41-4.45,4.91-6.72,1.21-1.55,2.33-3.1,3.39-4.66,2.63-3.9,4.8-7.82,6.52-11.72,16.86-37.94-7.57-73.77-45.99-66.66v-.03Z"></path>
    <path class="cls-1" d="M404.4,76.5c-3.53,14.68-6.48,29.47-9.06,44.34-.38,2.13-.74,4.26-1.09,6.39-1.37,8.11-2.63,16.26-3.84,24.4-.45,3.03-.89,6.05-1.32,9.08-1.16,8.06,1.99,16.23,10.54,18.58,7.08,1.94,17.41-2.43,18.57-10.55,1.8-12.49,3.69-24.98,5.82-37.41,1.56-9.07,3.25-18.11,5.11-27.12h0c1.82-8.82,3.81-17.59,6.01-26.31,4.75-18.84-24.35-26.88-29.12-8.03-.55,2.2-1.11,4.42-1.62,6.63h0Z"></path>
    <path class="cls-1" d="M752.59,251.86c.05-1.28.08-2.55.1-3.82.81-39.28-7.55-68.1-54.49-67.75-11.2.09-47.08,3.52-37.21,22.1,5.71,10.77,21.32,2.38,30.19,1.14,11.64-1.61,23.57-2,32.09,7.64,4.58,5.17,8.47,16.87,2.3,21.81-18.24-5.04-44.54-11.37-61.03,1.42-.88.68-1.71,1.41-2.5,2.2-5.45,5.4-8.83,13.08-10.04,21.12-1.35,8.79-.08,18.01,3.95,25.09,10.43,18.35,35.94,21.11,55.03,19.48,30.24-2.57,37.92-10.48,40.42-31.43.64-5.42.94-11.71,1.2-19.01h0ZM726.46,270.01c-1.01,13.41-31.28,12.57-40.71,10.33-11.65-2.77-14.83-15.14-10.73-23.89,2.14-4.55,6.26-8.11,12.19-8.82,10.48-1.26,31.46,3.87,37.57,14.89,1.25,2.25,1.87,4.74,1.67,7.48h.01Z"></path>
    <path class="cls-1" d="M620.78,208.29c-1.13,4.48-2.5,19.8-5.07,29.6-1.23,4.74-2.75,8.21-4.65,8.53-3.26-1.01-6.03-4.5-8.31-6.94-1.04-1.11-2.11-2.34-3.21-3.67-7.65-9.37-16.19-23.41-23.31-29.53-8.05-6.92-17.61-5.43-22.03,4.45-.11,7.26-.13,14.53-.09,21.79.03,7.56.1,15.13.16,22.69.03,2.49.04,4.98.05,7.47.01,4.49.03,8.98-.01,13.46-1.97,1.87-4.05,3.69-6.23,5.43-4.65,3.72-9.69,6.75-15.07,9.08-5.4,2.33-10.86,2.91-16.39,1.72-4.1-.72-6.98-2.67-8.67-5.85-1.7-3.17-2.33-7.17-1.89-12.01.01-.15.01-.3.02-.44.19-2.36.88-3.55,2.11-3.56.65,0,1.38.08,2.21.26.83.19,1.74.47,2.74.84,4.54,1.81,8.98,2.42,13.3,1.81,4.31-.59,8.18-2.05,11.55-4.35,2.34-1.6,4.44-3.47,6.26-5.62.8-.94,1.57-1.96,2.28-3.02,2.33-3.46,3.74-7.18,4.24-11.16.04-.25.06-.49.09-.74.36-3.74-.19-7.45-1.69-11.16-1.58-3.96-4.45-7.55-8.58-10.77-4.37-3.52-9.65-5.84-15.86-6.92-6.23-1.09-12.57-.5-19.02,1.76-2.89.97-5.87,2.34-8.96,4.09-3.08,1.76-6.16,3.97-9.23,6.67-3.08,2.69-6.04,5.84-8.87,9.46-2.58,3.31-4.83,7.08-6.73,11.3-.19.39-.36.78-.54,1.18-2.44,5.96-4.04,12.01-4.78,18.18-.75,6.18-.4,12.05,1.07,17.64.15.58.31,1.16.5,1.72,1.53,4.91,4.11,9.32,7.67,13.26,4,4.39,9.51,7.79,16.57,10.19,9.87,2.83,19.75,3.13,29.61.91,9.86-2.23,18.89-6.01,27.07-11.33,1.25-.82,2.47-1.65,3.65-2.52-.5,10.4.97,20.76,11.99,21.57,11.14.82,14.01-6.74,14.82-16.18.91-10.7-1.09-25.22-.79-36.84.94-2.4,1.67-4.82,2.19-7.23.21-.77.24-1.48.09-2.16-.1-.4-.26-.78-.5-1.14,1.75-2.15,5.06-1.48,7.52.92,8.96,10.15,16.69,21.86,25.92,31.7,5.25,5.57,11.26,13.57,19.61,12.58,17.94-2.16,9.12-33.13,7.99-46.96-.05-.5-.08-.99-.1-1.45-.2-4.64-.19-9.62.06-14.77.96-18.82,5.31-39.72,15.66-53.74,4.43-6.01,19.95-16.83,20.84-21.32,2.65-13.4-8.16-20.05-19.91-14.24-17.5,8.63-32.82,37.16-37.37,55.37h.02ZM512.11,251.28c.43-.72.92-1.42,1.47-2.1.64-.79,1.37-1.55,2.2-2.26,1.55-1.35,3.2-2.42,4.97-3.22,1.76-.81,3.37-.91,4.83-.3,1.8,1.6,2.36,3.35,1.69,5.25-.03.11-.08.24-.13.35-.88,2.04-2.33,3.76-4.39,5.2-2.06,1.42-4.25,2.35-6.58,2.77-2.31.43-3.91-.21-4.77-1.92-.44-.93-.2-2.18.7-3.75v-.02Z"></path>
    <path class="cls-1" d="M824.85,219.58c-8.78-3.87-18.62-4.23-28.04-5.17-1.74-.16-3.5-.33-5.21-.63-1.94-.33-1.48-.09-4.2-1.16-1.76-.7-3.13-1.75-3.43-2.92-1.01-3.99,1.31-6.25,5.51-5.85,19.36,1.84,21.69-28.26,2.34-30.1-23.74-2.25-43.6,20-37.02,43.36,3.03,10.77,10.63,18.84,20.83,23.28,8.69,3.8,18.48,3.92,27.75,4.89,4.34.47,5.52.24,9.66,2.03,2.28.98,3.31,1.99,4.5,4.35,2.11,4.18,1.95,9.27-.59,13.57-.15.25-.31.52-.47.75-9.03,14.05-29.9,13.03-45.7,8.36-3.04-.91-6.21-.94-9.12-.16-4.55,1.2-8.45,4.36-10.2,9.23-2.65,7.33,1.22,17.01,9.07,19.32,22.67,6.7,47.04,7.74,67.27-6.13.23-.15.45-.31.68-.49,10.04-7.13,16.86-17.45,19.36-28.81,1.85-8.35,1.36-17.25-1.89-25.82-3.75-9.94-11.43-17.64-21.11-21.92v.02Z"></path>
    <path class="cls-1" d="M288.78,149.79c.09.29.17.59.25.87.12.4.25.8.37,1.2.17.56.34,1.12.52,1.66.05.15.1.3.15.45.99,3.07,2.02,5.95,3.09,8.63.27.68.55,1.35.83,2,2.69,6.3,6.7,11.06,12.03,14.26,5.31,3.21,10.97,4.94,16.94,5.18s11.8-1.07,17.48-3.92c5.67-2.86,10.31-7.21,13.91-13.07,1.92-3.06,3.92-6.8,6.03-11.21,1.24-2.59,2.51-5.42,3.81-8.49,3.52-8.28,7.12-17.38,10.8-27.32,3.4-9.18,6.73-18.74,10-28.67.26-.79.53-1.6.79-2.4,3.51-10.78,6.75-21.07,9.7-30.86,2.96-9.77,5.47-18.65,7.55-26.62,2.06-7.97,3.56-14.04,4.47-18.21.57-3.96-.2-7.06-2.31-9.27s-4.77-3.51-7.95-3.89c-3.17-.36-6.42.2-9.7,1.71-3.3,1.52-5.75,4-7.36,7.46-4.67,10.2-9.28,20.89-13.85,32.1-3.52,8.64-6.98,17.3-10.39,25.99-1.01,2.57-2.01,5.13-3.01,7.71-4.38,11.26-8.68,22.39-12.91,33.41-4.23,11.01-8.33,21.42-12.31,31.23-1.36,2.81-2.99,4.06-4.93,3.8-1.94-.28-3.12-1.56-3.56-3.86-2.11-9.18-3.98-18.82-5.61-28.92-1.62-10.09-3.16-20.19-4.59-30.3-.45-3.18-.92-6.34-1.38-9.48-1.01-6.84-2.05-13.6-3.12-20.25-1.55-9.71-3.38-18.68-5.51-26.92-1.13-3.96-3.07-7.01-5.82-9.16-2.77-2.14-5.64-3.09-8.6-2.87-2.97.23-5.62,1.61-7.98,4.11-2.35,2.52-3.5,6.44-3.43,11.75.06,5.32.31,11.61.74,18.84.43,7.25,1.01,15.02,1.72,23.32.62,7.03,1.36,14.24,2.25,21.64.15,1.35.31,2.69.49,4.05,1.09,8.82,2.4,17.46,3.91,25.91,1.51,8.47,3.23,16.39,5.2,23.79.42,1.58.85,3.11,1.3,4.61h-.01Z"></path>
    <path class="cls-1" d="M440.74,83.23c-.38,3.75-.7,8.59-.97,14.52-.26,5.92-.31,12.28-.13,19.04.2,6.78.84,13.47,1.94,20.09.65,3.97,1.51,7.69,2.58,11.12.68,2.28,1.46,4.43,2.33,6.47,2.11,4.65,5.45,8.43,10.01,11.33,3.38,2.16,7.03,3.79,10.94,4.86,1.33.38,2.72.68,4.11.92,5.48.96,11.06.93,16.73-.08,5.66-1.01,10.57-3.17,14.72-6.49,2.6-1.9,5.03-4.19,7.28-6.87s4.53-5.58,6.83-8.73c1.8-2.52,3.41-3.79,4.79-3.8,1.4-.01,3.71.42,6.97,1.32,6.49,1.79,12.77,2.26,18.82,1.41.75-.11,1.48-.25,2.21-.38.9,1.19,1.88,2.35,2.95,3.46,2.55,2.65,5.71,4.93,9.45,6.86,2.45,1.27,5.17,2.38,8.14,3.33,10.49,2.83,20.98,3.13,31.46.91,10.48-2.23,20.06-6,28.76-11.33,8.69-5.32,16.08-11.65,22.16-18.97,6.08-7.32,9.96-14.73,11.66-22.23.43-1.41.16-2.65-.78-3.74-.93-1.07-2.09-1.91-3.45-2.53-1.36-.6-2.78-.82-4.25-.65-1.47.18-2.62.74-3.46,1.69-2.49,3.14-5.71,6.88-9.66,11.22-3.95,4.33-8.39,8.36-13.33,12.08s-10.28,6.75-16,9.08c-5.74,2.33-11.53,2.91-17.41,1.72-4.35-.72-7.42-2.67-9.21-5.85-1.8-3.17-2.47-7.17-2-12.01.11-2.64.87-3.99,2.26-4,1.4-.01,3.14.35,5.27,1.11,4.82,1.81,9.52,2.42,14.13,1.81,4.58-.59,8.68-2.05,12.26-4.35,3.59-2.3,6.62-5.18,9.07-8.64,2.45-3.46,3.96-7.17,4.5-11.16.55-3.97-.03-7.95-1.7-11.9-1.69-3.95-4.73-7.55-9.13-10.75-4.62-3.53-10.23-5.85-16.84-6.93-6.62-1.09-13.35-.5-20.19,1.76-3.07.97-6.24,2.34-9.51,4.09-3.27,1.76-6.54,3.97-9.81,6.67-3.28,2.69-6.42,5.84-9.41,9.46-3.01,3.62-5.57,7.79-7.72,12.48-1.41,3.25-2.54,6.5-3.42,9.8-.57,2.1-1.02,4.21-1.36,6.34-.11.68-.21,1.37-.3,2.05-.23,1.79-.36,3.54-.39,5.28-.62-.19-1.22-.42-1.8-.69-1.01-.48-1.86-1.04-2.59-1.71-1.12-.99-1.91-2.2-2.39-3.61-.78-2.33-.33-5.37,1.36-9.13,1.52-3.45,2.92-6.77,4.19-9.99,1.27-3.21,2.73-6.93,4.37-11.16,1.03-2.82,1.31-5.31.82-7.48-.49-2.18-1.5-3.99-3.03-5.46-1.53-1.46-3.5-2.45-5.86-2.97-2.38-.52-5.03-.44-7.94.21-4.19.98-7.99,2.98-11.41,5.99-3.43,2.99-6.45,6.47-9.04,10.39-2.6,3.92-4.67,8-6.21,12.23s-2.44,7.97-2.68,11.26c-3.53,5.81-6.92,11.27-10.14,16.37-3.23,5.11-5.85,8.84-7.85,11.2-1.37,1.27-2.62,1.82-3.75,1.69-1.13-.14-1.99-1.3-2.57-3.47-.38-1.65-.75-3.37-1.13-5.16-.58-2.78-1.17-5.72-1.75-8.84-.96-5.12-1.92-10.25-2.88-15.38s-1.9-10.08-2.82-14.82c-.92-4.74-1.84-8.89-2.73-12.47-.62-2.49-2.19-4.34-4.72-5.56-2.54-1.21-5.19-1.72-7.96-1.53s-5.3,1.03-7.56,2.54c-2.28,1.51-3.55,3.75-3.82,6.7v-.04ZM591.35,97.77c.97-1.56,2.26-3.02,3.9-4.36,1.64-1.35,3.4-2.42,5.27-3.22,1.87-.81,3.58-.91,5.13-.3,2.01,1.7,2.58,3.56,1.65,5.6-.92,2.04-2.47,3.76-4.65,5.2-2.19,1.43-4.52,2.35-6.98,2.77-2.48.43-4.16-.21-5.07-1.92-.47-.93-.21-2.18.75-3.75v-.02Z"></path>
    <path class="cls-1" d="M673.98,307.28c-16.5,14.79-44.76,48.16-138.27,32.35-52.34-10.33-72.96-32.98-80.76-46.26-3.61-6.13-4.48-10.25-4.48-10.25,0,0-4.03-6.96,1.2-10.16,5.23-3.21,19.65-20.35,18.29-40.96-1.37-20.6-20.23-36.87-33.86-39.75-13.66-2.88-20.31-5.31-28.83-1.42,0,0-17.02-8.36-21.62,9.03-2.54,13.66-4.49,62.92-4.79,92.1-.1,10.29,0,18.09.35,20.94,1.36,10.97,10.35,13.55,16.08,13.46,5.72-.08,13.84-3.52,13.99-12.73.14-9.22-1.12-18.99-1.12-18.99,0,0-.01-.1-.01-.29-.04-1.19.1-5.72,4.24-6.08,4.77-.4,6.63.57,8.74,5.12.13.29.35.72.67,1.3,4.73,8.65,30.52,48.53,90.81,63.35,64.29,15.79,118.64,3.77,138.15-6.84,19.53-10.6,37.02-25.23,41.56-32.55,4.55-7.33-4.14-24.19-20.33-11.36h-.01ZM440.15,237.7c-3.66,18.44-21.06,22.11-25.27,21.89-4.23-.24-4.79-7.72-4.79-7.72l3.09-30.18c1.02-9.91,9.09-6.36,9.09-6.36,0,0,21.54,3.94,17.87,22.38h0Z"></path>
    <path class="cls-1" d="M864.64,264.38c0,2.21.18,3.82,2.21,4.43,5.28,1.59,9.34-1.61,11.23-7.9,3.79-12.58,6.77-41.56,5.89-67.27-.76-21.7-3.54-24.97-11.66-27.42-6.7-2.02-15.79.99-17.69,7.28-.67,2.23.4,4.55,2.7,14.53,1.92,8.32,8.16,43.4,7.31,76.34h.01Z"></path>
    <path class="cls-1" d="M868.96,279.41c-7.1-2.14-13.3,1.53-15.13,7.61-2.75,9.13,3.02,18.62,12.15,21.37,7.1,2.14,13.91-1.34,15.8-7.63,2.57-8.52-3.28-18.47-12.82-21.35h0Z"></path>
    <path class="cls-1" d="M244.35,65.9c-5.24-1.18-8.97,2.21-10.38,8.45-2.82,12.48-3.74,40.85-1.12,65.78,2.23,21.03,5.15,24.02,13.2,25.85,6.64,1.5,15.28-2.05,16.69-8.29.5-2.22-.7-4.39-3.62-13.94-2.43-7.96-10.91-41.63-12.33-73.7-.15-2.15-.43-3.7-2.45-4.15h.01Z"></path>
    <path class="cls-1" d="M241.56,55.75c7.05,1.59,12.82-2.39,14.18-8.43,2.05-9.06-4.21-17.89-13.27-19.93-7.05-1.59-13.42,2.26-14.83,8.5-1.91,8.46,4.46,17.73,13.92,19.87h0Z"></path>
  </g>
</svg>