<?xml version="1.0"?>
<svg fill="#0d0fac" id="Capa_2" data-name="Capa 2" xmlns="http://www.w3.org/2000/svg" viewBox="0 0 1018.37 418.57">
  <defs>
    
  </defs>
  <g id="Capa_1-2" data-name="Capa 1">
    <g>
      <g>
        <path class="cls-2" d="M77.71,354.17l-8.63-32.03v34.71c0,1.92-.46,3.36-1.38,4.32-.92.96-2.14,1.44-3.66,1.44s-2.67-.48-3.6-1.42c-.93-.95-1.4-2.39-1.4-4.34v-39.78c0-2.19.61-3.67,1.84-4.44,1.22-.77,2.88-1.15,4.96-1.15h3.38c2.03,0,3.51.17,4.43.51.92.34,1.6.96,2.04,1.85.44.89.94,2.34,1.51,4.36l7.83,27.54,7.83-27.54c.56-2.01,1.07-3.46,1.51-4.36.44-.89,1.12-1.51,2.04-1.85.92-.34,2.39-.51,4.43-.51h3.38c2.08,0,3.73.38,4.96,1.15,1.22.77,1.84,2.25,1.84,4.44v39.78c0,1.92-.46,3.36-1.38,4.32-.92.96-2.15,1.44-3.69,1.44-1.45,0-2.63-.48-3.56-1.44-.93-.96-1.4-2.4-1.4-4.32v-34.71l-8.63,32.03c-.56,2.08-1.02,3.61-1.38,4.58-.35.97-1.01,1.86-1.97,2.66-.96.8-2.28,1.2-3.97,1.2-1.27,0-2.35-.26-3.23-.77-.88-.51-1.57-1.17-2.06-1.97-.49-.8-.88-1.69-1.16-2.66-.28-.97-.57-1.98-.86-3.03Z"></path>
        <path class="cls-2" d="M146.5,357.33v-1.2c-1.2,1.42-2.46,2.61-3.78,3.57-1.32.96-2.77,1.68-4.34,2.14-1.57.47-3.36.7-5.36.7-2.42,0-4.6-.47-6.52-1.41-1.92-.94-3.41-2.23-4.46-3.88-1.25-1.99-1.87-4.85-1.87-8.57v-18.55c0-1.87.45-3.27,1.36-4.2.91-.92,2.11-1.39,3.6-1.39s2.74.47,3.67,1.41c.93.94,1.4,2.33,1.4,4.18v14.99c0,2.17.2,4,.59,5.47.39,1.48,1.1,2.63,2.11,3.47,1.02.83,2.39,1.25,4.13,1.25s3.28-.47,4.78-1.41c1.49-.94,2.58-2.16,3.27-3.67.56-1.32.84-4.23.84-8.71v-11.39c0-1.85.47-3.24,1.4-4.18.93-.94,2.14-1.41,3.64-1.41s2.69.46,3.6,1.39c.91.93,1.36,2.33,1.36,4.2v27.13c0,1.78-.43,3.12-1.3,4.01-.87.89-1.99,1.34-3.36,1.34s-2.5-.46-3.4-1.39c-.89-.93-1.34-2.22-1.34-3.89Z"></path>
        <path class="cls-2" d="M173.96,329.72v1.13c1.76-2.17,3.69-3.77,5.79-4.79,2.09-1.02,4.5-1.52,7.22-1.52s5.01.54,7.09,1.61c2.08,1.08,3.64,2.6,4.67,4.56.66,1.14,1.09,2.38,1.29,3.7.2,1.33.29,3.02.29,5.08v17.42c0,1.87-.46,3.29-1.38,4.25-.92.96-2.11,1.44-3.58,1.44s-2.71-.49-3.64-1.47c-.93-.98-1.4-2.39-1.4-4.22v-15.6c0-3.09-.46-5.45-1.38-7.08-.92-1.63-2.75-2.45-5.49-2.45-1.79,0-3.42.5-4.89,1.49-1.47.99-2.55,2.36-3.23,4.1-.49,1.39-.73,4-.73,7.82v11.73c0,1.9-.47,3.32-1.41,4.27-.94.95-2.16,1.42-3.66,1.42s-2.63-.49-3.56-1.47c-.93-.98-1.4-2.39-1.4-4.22v-27.06c0-1.78.42-3.11,1.25-3.99s1.97-1.32,3.42-1.32c.88,0,1.68.19,2.39.58.71.39,1.28.97,1.71,1.75.43.78.64,1.73.64,2.85Z"></path>
        <path class="cls-2" d="M214.32,320.19c-1.4,0-2.59-.4-3.58-1.2-.99-.8-1.49-1.93-1.49-3.39,0-1.33.51-2.42,1.52-3.28,1.02-.86,2.2-1.28,3.55-1.28s2.45.39,3.45,1.17c1,.78,1.51,1.91,1.51,3.4s-.49,2.57-1.47,3.38c-.98.81-2.14,1.22-3.49,1.22ZM219.28,329.86v27.06c0,1.87-.48,3.29-1.43,4.25-.96.96-2.17,1.44-3.64,1.44s-2.66-.49-3.58-1.47c-.92-.98-1.38-2.39-1.38-4.22v-26.79c0-1.85.46-3.24,1.38-4.18.92-.94,2.11-1.41,3.58-1.41s2.68.47,3.64,1.41c.96.94,1.43,2.24,1.43,3.91Z"></path>
        <path class="cls-2" d="M264.56,351.02c0,1.17-.37,2.41-1.12,3.74-.75,1.33-1.89,2.59-3.42,3.79s-3.46,2.17-5.79,2.9c-2.33.73-4.95,1.1-7.86,1.1-6.2,0-11.04-1.69-14.51-5.06-3.48-3.37-5.22-7.89-5.22-13.56,0-3.84.8-7.24,2.39-10.18,1.59-2.95,3.89-5.23,6.91-6.84,3.01-1.61,6.61-2.42,10.8-2.42,2.6,0,4.98.36,7.15,1.06,2.17.71,4,1.62,5.51,2.74,1.51,1.12,2.66,2.31,3.45,3.58.8,1.27,1.19,2.45,1.19,3.55s-.45,2.07-1.34,2.85c-.89.78-1.98,1.17-3.25,1.17-.83,0-1.52-.2-2.08-.6-.55-.4-1.17-1.05-1.86-1.94-1.22-1.74-2.5-3.04-3.84-3.91-1.34-.87-3.03-1.3-5.09-1.3-2.96,0-5.35,1.08-7.16,3.24-1.81,2.16-2.72,5.12-2.72,8.86,0,1.76.23,3.38.7,4.85.47,1.48,1.14,2.73,2.02,3.77.88,1.04,1.95,1.83,3.2,2.37,1.25.54,2.62.81,4.12.81,2.01,0,3.73-.43,5.16-1.3,1.43-.87,2.7-2.19,3.8-3.98.61-1.05,1.27-1.87,1.98-2.47s1.58-.89,2.61-.89c1.22,0,2.24.44,3.05,1.3.81.87,1.21,1.8,1.21,2.78Z"></path>
        <path class="cls-2" d="M277.32,320.19c-1.4,0-2.59-.4-3.58-1.2-.99-.8-1.49-1.93-1.49-3.39,0-1.33.51-2.42,1.52-3.28,1.02-.86,2.2-1.28,3.55-1.28s2.45.39,3.45,1.17,1.51,1.91,1.51,3.4-.49,2.57-1.47,3.38c-.98.81-2.14,1.22-3.49,1.22ZM282.28,329.86v27.06c0,1.87-.48,3.29-1.43,4.25-.96.96-2.17,1.44-3.64,1.44s-2.66-.49-3.58-1.47c-.92-.98-1.38-2.39-1.38-4.22v-26.79c0-1.85.46-3.24,1.38-4.18.92-.94,2.11-1.41,3.58-1.41s2.68.47,3.64,1.41c.96.94,1.43,2.24,1.43,3.91Z"></path>
        <path class="cls-2" d="M300.85,329.79v1.13c1.89-2.17,3.85-3.77,5.88-4.78,2.03-1.02,4.34-1.53,6.91-1.53,3.09,0,5.93.74,8.52,2.23,2.6,1.49,4.65,3.66,6.16,6.52,1.51,2.86,2.26,6.24,2.26,10.15,0,2.88-.44,5.53-1.3,7.94-.87,2.41-2.06,4.44-3.58,6.07-1.52,1.63-3.31,2.89-5.38,3.77-2.07.88-4.29,1.32-6.67,1.32-2.87,0-5.27-.54-7.22-1.61-1.95-1.08-3.8-2.65-5.57-4.73v14.06c0,4.12-1.6,6.17-4.81,6.17-1.89,0-3.14-.53-3.75-1.59-.61-1.06-.92-2.61-.92-4.65v-40.4c0-1.78.42-3.11,1.25-3.99s1.97-1.32,3.42-1.32,2.58.45,3.47,1.35c.89.9,1.34,2.2,1.34,3.89ZM320.5,343.4c0-2.47-.41-4.59-1.21-6.36-.81-1.77-1.93-3.13-3.36-4.08-1.43-.95-3.02-1.42-4.76-1.42-2.77,0-5.1,1.02-7,3.05-1.9,2.03-2.85,5.03-2.85,8.98,0,3.73.94,6.62,2.83,8.69,1.89,2.07,4.22,3.1,7.02,3.1,1.67,0,3.21-.45,4.63-1.36,1.42-.9,2.56-2.26,3.42-4.06.86-1.81,1.29-3.99,1.29-6.55Z"></path>
        <path class="cls-2" d="M342.64,320.19c-1.4,0-2.59-.4-3.58-1.2-.99-.8-1.49-1.93-1.49-3.39,0-1.33.51-2.42,1.52-3.28,1.02-.86,2.2-1.28,3.54-1.28s2.45.39,3.45,1.17c1,.78,1.51,1.91,1.51,3.4s-.49,2.57-1.47,3.38c-.98.81-2.15,1.22-3.49,1.22ZM347.6,329.86v27.06c0,1.87-.48,3.29-1.43,4.25-.95.96-2.17,1.44-3.64,1.44s-2.66-.49-3.58-1.47c-.92-.98-1.38-2.39-1.38-4.22v-26.79c0-1.85.46-3.24,1.38-4.18.92-.94,2.11-1.41,3.58-1.41s2.68.47,3.64,1.41c.96.94,1.43,2.24,1.43,3.91Z"></path>
        <path class="cls-2" d="M394.45,343.58c0,2.79-.47,5.36-1.4,7.72-.93,2.36-2.28,4.38-4.04,6.07-1.76,1.69-3.87,2.99-6.32,3.89-2.45.9-5.21,1.35-8.27,1.35s-5.77-.46-8.19-1.37c-2.43-.91-4.53-2.22-6.3-3.93-1.78-1.7-3.12-3.71-4.04-6.04-.92-2.32-1.38-4.89-1.38-7.7s.47-5.43,1.4-7.79c.93-2.35,2.26-4.37,4-6.03,1.74-1.67,3.85-2.96,6.32-3.86,2.47-.9,5.21-1.35,8.19-1.35s5.79.46,8.27,1.37c2.47.91,4.59,2.22,6.36,3.91,1.76,1.69,3.11,3.7,4.02,6.04s1.38,4.9,1.38,7.72ZM384.39,343.58c0-3.82-.9-6.79-2.7-8.92-1.8-2.13-4.22-3.19-7.26-3.19-1.96,0-3.69.48-5.18,1.42-1.5.95-2.65,2.35-3.45,4.2-.81,1.85-1.21,4.01-1.21,6.48s.4,4.58,1.19,6.41c.8,1.83,1.93,3.23,3.42,4.2,1.48.97,3.23,1.46,5.24,1.46,3.04,0,5.46-1.07,7.26-3.21,1.8-2.14,2.7-5.09,2.7-8.87Z"></path>
        <path class="cls-2" d="M454.22,356.06l-2.57-6.31h-21.9l-2.57,6.45c-1,2.52-1.86,4.21-2.57,5.09-.71.88-1.87,1.32-3.49,1.32-1.37,0-2.58-.47-3.64-1.41-1.05-.94-1.58-2-1.58-3.19,0-.69.12-1.39.37-2.13.24-.73.65-1.75,1.21-3.05l13.78-32.65c.39-.94.86-2.06,1.42-3.38.55-1.31,1.14-2.41,1.76-3.27.62-.87,1.44-1.57,2.46-2.11,1.02-.54,2.27-.81,3.77-.81s2.79.27,3.8.81c1.02.54,1.84,1.23,2.46,2.08.62.84,1.15,1.75,1.58,2.73.43.97.97,2.27,1.63,3.89l14.07,32.44c1.1,2.47,1.65,4.26,1.65,5.38s-.52,2.24-1.56,3.21c-1.04.97-2.3,1.46-3.77,1.46-.86,0-1.59-.14-2.2-.43-.61-.29-1.13-.67-1.54-1.17-.42-.49-.86-1.24-1.34-2.26-.48-1.02-.89-1.91-1.23-2.69ZM432.62,342.1h16.09l-8.12-20.75-7.97,20.75Z"></path>
        <path class="cls-2" d="M505.49,344.26v12.45c0,1.97-.48,3.44-1.43,4.43-.95.98-2.22,1.47-3.78,1.47s-2.75-.49-3.69-1.47c-.94-.98-1.41-2.46-1.41-4.43v-14.92c0-2.35-.09-4.18-.26-5.49-.17-1.3-.64-2.37-1.4-3.21-.76-.83-1.96-1.25-3.6-1.25-3.28,0-5.44,1.05-6.49,3.16-1.04,2.1-1.56,5.12-1.56,9.05v12.65c0,1.94-.47,3.41-1.42,4.41-.94.99-2.19,1.49-3.73,1.49s-2.76-.5-3.73-1.49c-.97-.99-1.45-2.46-1.45-4.41v-26.78c0-1.76.44-3.1,1.3-4.01.87-.91,2.01-1.37,3.44-1.37s2.52.43,3.44,1.29c.92.86,1.38,2.04,1.38,3.55v.89c1.74-1.94,3.6-3.37,5.58-4.29,1.98-.91,4.19-1.37,6.61-1.37s4.69.47,6.5,1.41c1.81.94,3.31,2.36,4.48,4.25,1.69-1.92,3.5-3.34,5.44-4.27,1.93-.93,4.08-1.39,6.43-1.39,2.74,0,5.11.5,7.09,1.51,1.98,1.01,3.47,2.45,4.45,4.32.86,1.69,1.29,4.35,1.29,7.99v18.28c0,1.97-.48,3.44-1.43,4.43-.96.98-2.22,1.47-3.79,1.47s-2.76-.5-3.73-1.49c-.97-.99-1.45-2.46-1.45-4.41v-15.74c0-2.01-.09-3.62-.28-4.84-.18-1.21-.68-2.23-1.49-3.05-.81-.82-2.03-1.23-3.67-1.23-1.32,0-2.58.37-3.77,1.1-1.19.73-2.11,1.71-2.77,2.95-.73,1.58-1.1,4.37-1.1,8.37Z"></path>
        <path class="cls-2" d="M546.91,315.97v14.3c1.88-1.83,3.81-3.23,5.77-4.2,1.96-.97,4.38-1.46,7.27-1.46,3.33,0,6.25.74,8.76,2.21,2.51,1.48,4.46,3.61,5.84,6.41,1.38,2.8,2.08,6.12,2.08,9.96,0,2.84-.39,5.44-1.16,7.8-.77,2.37-1.89,4.42-3.36,6.16-1.47,1.74-3.25,3.08-5.35,4.03-2.09.95-4.4,1.42-6.92,1.42-1.54,0-2.99-.17-4.35-.51-1.36-.34-2.52-.79-3.47-1.35-.95-.56-1.77-1.14-2.44-1.73-.67-.59-1.56-1.49-2.66-2.67v.92c0,1.76-.45,3.09-1.36,4-.91.9-2.06,1.35-3.45,1.35s-2.55-.45-3.4-1.35c-.84-.9-1.27-2.23-1.27-4v-40.88c0-1.9.41-3.33,1.23-4.3.82-.97,1.97-1.46,3.44-1.46,1.54,0,2.73.46,3.56,1.39.83.93,1.25,2.25,1.25,3.96ZM547.39,343.78c0,3.73.91,6.59,2.74,8.59,1.82,2,4.22,3,7.18,3,2.52,0,4.7-1.02,6.52-3.07,1.83-2.05,2.74-4.98,2.74-8.8,0-2.47-.38-4.59-1.14-6.38-.76-1.78-1.84-3.16-3.23-4.13-1.4-.97-3.03-1.46-4.89-1.46s-3.61.49-5.11,1.46c-1.5.97-2.67,2.38-3.53,4.22-.86,1.84-1.29,4.03-1.29,6.57Z"></path>
        <path class="cls-2" d="M593.59,349.1v7.82c0,1.9-.48,3.32-1.43,4.27-.95.95-2.17,1.42-3.64,1.42s-2.63-.48-3.56-1.44c-.93-.96-1.4-2.38-1.4-4.25v-26.06c0-4.21,1.63-6.31,4.89-6.31,1.66,0,2.87.49,3.6,1.47.73.98,1.14,2.44,1.21,4.36,1.2-1.92,2.43-3.37,3.69-4.36,1.26-.98,2.94-1.47,5.05-1.47s4.15.49,6.14,1.47c1.98.98,2.98,2.29,2.98,3.91,0,1.14-.42,2.09-1.27,2.83-.84.74-1.76,1.11-2.74,1.11-.37,0-1.26-.21-2.66-.63-1.41-.42-2.65-.63-3.73-.63-1.47,0-2.67.36-3.6,1.08-.93.72-1.65,1.79-2.17,3.2-.51,1.42-.87,3.1-1.07,5.06-.2,1.95-.29,4.34-.29,7.15Z"></path>
        <path class="cls-2" d="M650.22,343.58c0,2.79-.47,5.36-1.4,7.72-.93,2.36-2.28,4.38-4.04,6.07-1.76,1.69-3.87,2.99-6.32,3.89-2.45.9-5.21,1.35-8.27,1.35s-5.77-.46-8.19-1.37c-2.43-.91-4.53-2.22-6.3-3.93-1.78-1.7-3.12-3.71-4.04-6.04-.92-2.32-1.38-4.89-1.38-7.7s.47-5.43,1.4-7.79c.93-2.35,2.26-4.37,4-6.03,1.74-1.67,3.85-2.96,6.32-3.86,2.47-.9,5.21-1.35,8.19-1.35s5.79.46,8.27,1.37c2.47.91,4.59,2.22,6.36,3.91s3.11,3.7,4.02,6.04c.92,2.33,1.38,4.9,1.38,7.72ZM640.15,343.58c0-3.82-.9-6.79-2.7-8.92-1.8-2.13-4.22-3.19-7.26-3.19-1.96,0-3.69.48-5.18,1.42-1.5.95-2.65,2.35-3.45,4.2-.81,1.85-1.21,4.01-1.21,6.48s.4,4.58,1.19,6.41c.8,1.83,1.93,3.23,3.42,4.2,1.48.97,3.23,1.46,5.24,1.46,3.04,0,5.46-1.07,7.26-3.21,1.8-2.14,2.7-5.09,2.7-8.87Z"></path>
        <path class="cls-2" d="M689.36,350.37c0,2.58-.67,4.8-2.02,6.64-1.35,1.84-3.34,3.23-5.97,4.18-2.63.95-5.84,1.42-9.61,1.42s-6.69-.51-9.26-1.54c-2.57-1.03-4.47-2.31-5.7-3.86-1.22-1.54-1.84-3.09-1.84-4.65,0-1.03.39-1.91,1.18-2.64.78-.73,1.78-1.1,2.98-1.1,1.05,0,1.86.24,2.42.72.56.48,1.1,1.16,1.62,2.02,1.03,1.67,2.26,2.91,3.69,3.74,1.43.82,3.39,1.23,5.86,1.23,2.01,0,3.66-.42,4.94-1.25,1.29-.84,1.93-1.79,1.93-2.87,0-1.65-.67-2.85-2-3.6-1.34-.75-3.53-1.48-6.59-2.16-3.45-.8-6.26-1.64-8.43-2.52-2.17-.88-3.9-2.04-5.2-3.48-1.3-1.44-1.95-3.21-1.95-5.32,0-1.87.6-3.65,1.8-5.31,1.2-1.67,2.97-3,5.31-4,2.34-.99,5.16-1.49,8.47-1.49,2.59,0,4.93.25,7,.75,2.07.5,3.8,1.18,5.18,2.02,1.38.84,2.44,1.78,3.16,2.81.72,1.03,1.08,2.04,1.08,3.02,0,1.08-.39,1.95-1.16,2.64-.77.69-1.87,1.03-3.29,1.03-1.03,0-1.9-.27-2.63-.82-.72-.55-1.55-1.37-2.48-2.47-.76-.91-1.65-1.65-2.68-2.19-1.03-.55-2.42-.82-4.19-.82s-3.32.36-4.52,1.08c-1.2.72-1.8,1.62-1.8,2.69,0,.98.44,1.79,1.32,2.42.88.63,2.07,1.15,3.56,1.56,1.49.41,3.55.91,6.17,1.51,3.11.71,5.65,1.55,7.62,2.54,1.97.98,3.47,2.14,4.48,3.48,1.02,1.34,1.52,2.86,1.52,4.58Z"></path>
        <path class="cls-2" d="M701.87,320.19c-1.4,0-2.59-.4-3.58-1.2-.99-.8-1.49-1.93-1.49-3.39,0-1.33.51-2.42,1.52-3.28,1.02-.86,2.2-1.28,3.54-1.28s2.45.39,3.45,1.17c1,.78,1.51,1.91,1.51,3.4s-.49,2.57-1.47,3.38c-.98.81-2.15,1.22-3.49,1.22ZM706.83,329.86v27.06c0,1.87-.48,3.29-1.43,4.25-.95.96-2.17,1.44-3.64,1.44s-2.66-.49-3.58-1.47c-.92-.98-1.38-2.39-1.38-4.22v-26.79c0-1.85.46-3.24,1.38-4.18.92-.94,2.11-1.41,3.58-1.41s2.68.47,3.64,1.41c.96.94,1.43,2.24,1.43,3.91Z"></path>
        <path class="cls-2" d="M753.69,343.58c0,2.79-.47,5.36-1.4,7.72-.93,2.36-2.28,4.38-4.04,6.07-1.76,1.69-3.87,2.99-6.32,3.89-2.45.9-5.21,1.35-8.27,1.35s-5.77-.46-8.19-1.37c-2.43-.91-4.53-2.22-6.3-3.93-1.78-1.7-3.12-3.71-4.04-6.04-.92-2.32-1.38-4.89-1.38-7.7s.47-5.43,1.4-7.79c.93-2.35,2.26-4.37,4-6.03,1.74-1.67,3.85-2.96,6.32-3.86,2.47-.9,5.21-1.35,8.19-1.35s5.79.46,8.27,1.37c2.47.91,4.59,2.22,6.36,3.91,1.76,1.69,3.11,3.7,4.02,6.04.92,2.33,1.38,4.9,1.38,7.72ZM743.62,343.58c0-3.82-.9-6.79-2.7-8.92-1.8-2.13-4.22-3.19-7.26-3.19-1.96,0-3.69.48-5.18,1.42-1.5.95-2.65,2.35-3.45,4.2-.81,1.85-1.21,4.01-1.21,6.48s.4,4.58,1.19,6.41c.8,1.83,1.93,3.23,3.42,4.2,1.48.97,3.23,1.46,5.24,1.46,3.04,0,5.46-1.07,7.26-3.21,1.8-2.14,2.7-5.09,2.7-8.87Z"></path>
        <path class="cls-2" d="M799.89,342.17h-9.99v14.23c0,2.04-.51,3.58-1.54,4.63-1.03,1.05-2.33,1.58-3.89,1.58s-2.96-.52-3.97-1.56c-1.01-1.04-1.51-2.56-1.51-4.58v-38.75c0-2.24.55-3.84,1.65-4.8,1.1-.96,2.86-1.44,5.25-1.44h14c4.14,0,7.32.3,9.55.89,2.2.57,4.11,1.52,5.71,2.85,1.6,1.33,2.82,2.95,3.65,4.87.83,1.92,1.25,4.08,1.25,6.48,0,5.12-1.69,9-5.07,11.64-3.38,2.64-8.41,3.96-15.1,3.96ZM797.25,319.12h-7.35v15.36h7.35c2.57,0,4.72-.25,6.45-.75,1.73-.5,3.04-1.33,3.95-2.47s1.36-2.64,1.36-4.49c0-2.22-.7-4.02-2.09-5.42-1.57-1.49-4.79-2.23-9.66-2.23Z"></path>
        <path class="cls-2" d="M827.43,356.92v-40.61c0-1.87.45-3.29,1.34-4.25.89-.96,2.1-1.44,3.62-1.44s2.74.47,3.67,1.42c.93.95,1.4,2.37,1.4,4.27v40.61c0,1.9-.47,3.32-1.42,4.27s-2.16,1.42-3.65,1.42-2.66-.49-3.58-1.47c-.92-.98-1.38-2.39-1.38-4.22Z"></path>
        <path class="cls-2" d="M872.12,357.33c-2.43,1.76-4.77,3.08-7.04,3.96-2.27.88-4.81,1.32-7.62,1.32-2.57,0-4.83-.48-6.78-1.42-1.95-.95-3.45-2.23-4.5-3.86-1.05-1.62-1.58-3.38-1.58-5.28,0-2.56.87-4.75,2.61-6.55,1.74-1.81,4.13-3.02,7.17-3.63.64-.14,2.22-.45,4.74-.93,2.52-.48,4.68-.92,6.49-1.32,1.8-.4,3.75-.89,5.86-1.46-.12-2.47-.65-4.28-1.6-5.44-.94-1.16-2.9-1.73-5.86-1.73-2.55,0-4.46.33-5.75.99-1.29.66-2.39,1.66-3.31,2.98-.92,1.33-1.57,2.2-1.95,2.62s-1.19.63-2.44.63c-1.13,0-2.1-.34-2.92-1.01-.82-.67-1.23-1.54-1.23-2.59,0-1.65.62-3.25,1.87-4.8,1.25-1.55,3.2-2.84,5.84-3.84,2.64-1.01,5.94-1.51,9.88-1.51,4.41,0,7.88.49,10.4,1.46,2.52.97,4.3,2.51,5.35,4.61,1.04,2.1,1.56,4.89,1.56,8.37,0,2.19,0,4.06-.02,5.59-.01,1.53-.03,3.23-.06,5.11,0,1.76.31,3.59.94,5.5.63,1.91.94,3.14.94,3.69,0,.96-.49,1.83-1.45,2.62-.97.79-2.06,1.18-3.29,1.18-1.03,0-2.05-.45-3.05-1.35-1-.9-2.07-2.21-3.2-3.93ZM871.46,343.78c-1.47.51-3.61,1.04-6.41,1.6-2.81.56-4.75.97-5.82,1.23-1.08.26-2.11.78-3.09,1.54s-1.47,1.84-1.47,3.21.57,2.62,1.73,3.62c1.15,1,2.66,1.49,4.52,1.49,1.98,0,3.81-.41,5.49-1.22,1.68-.81,2.91-1.86,3.69-3.14.9-1.42,1.36-3.75,1.36-7v-1.34Z"></path>
        <path class="cls-2" d="M917.69,335.28l-18.37,19.17h19.66c1.59,0,2.79.35,3.6,1.05.81.7,1.21,1.59,1.21,2.69s-.4,1.91-1.19,2.57c-.8.66-2,.99-3.62.99h-27.19c-1.91,0-3.34-.39-4.28-1.17-.94-.78-1.42-1.84-1.42-3.19,0-.8.33-1.6.99-2.42.66-.81,2.03-2.3,4.12-4.48,2.2-2.28,4.21-4.35,6.01-6.21,1.8-1.85,3.47-3.58,5.02-5.2,1.54-1.61,2.82-2.98,3.84-4.1,1.02-1.12,1.83-2.08,2.44-2.88h-14.92c-2.06,0-3.61-.17-4.67-.51-1.05-.34-1.58-1.25-1.58-2.71,0-1.07.4-1.93,1.19-2.57.8-.64,1.93-.96,3.4-.96h23.04c2.13,0,3.77.29,4.9.87,1.14.58,1.71,1.63,1.71,3.14,0,.5-.11,1.02-.33,1.56s-.47.98-.74,1.32c-.27.34-.64.76-1.1,1.25-.47.49-1.04,1.08-1.73,1.77Z"></path>
        <path class="cls-2" d="M953.93,357.33c-2.43,1.76-4.77,3.08-7.04,3.96-2.27.88-4.81,1.32-7.62,1.32-2.57,0-4.83-.48-6.78-1.42-1.95-.95-3.45-2.23-4.5-3.86-1.05-1.62-1.58-3.38-1.58-5.28,0-2.56.87-4.75,2.61-6.55,1.74-1.81,4.13-3.02,7.17-3.63.64-.14,2.22-.45,4.74-.93,2.52-.48,4.68-.92,6.49-1.32,1.8-.4,3.75-.89,5.86-1.46-.12-2.47-.65-4.28-1.6-5.44-.94-1.16-2.9-1.73-5.86-1.73-2.55,0-4.46.33-5.75.99-1.29.66-2.39,1.66-3.31,2.98-.92,1.33-1.57,2.2-1.95,2.62s-1.19.63-2.44.63c-1.13,0-2.1-.34-2.92-1.01-.82-.67-1.23-1.54-1.23-2.59,0-1.65.62-3.25,1.87-4.8,1.25-1.55,3.2-2.84,5.84-3.84,2.64-1.01,5.94-1.51,9.88-1.51,4.41,0,7.88.49,10.4,1.46,2.52.97,4.3,2.51,5.35,4.61,1.04,2.1,1.56,4.89,1.56,8.37,0,2.19,0,4.06-.02,5.59-.01,1.53-.03,3.23-.06,5.11,0,1.76.31,3.59.94,5.5.63,1.91.94,3.14.94,3.69,0,.96-.49,1.83-1.45,2.62-.97.79-2.06,1.18-3.29,1.18-1.03,0-2.05-.45-3.05-1.35-1-.9-2.07-2.21-3.2-3.93ZM953.27,343.78c-1.47.51-3.61,1.04-6.41,1.6-2.81.56-4.75.97-5.82,1.23-1.08.26-2.11.78-3.09,1.54-.98.77-1.47,1.84-1.47,3.21s.57,2.62,1.73,3.62c1.15,1,2.66,1.49,4.52,1.49,1.98,0,3.81-.41,5.49-1.22,1.68-.81,2.91-1.86,3.69-3.14.9-1.42,1.36-3.75,1.36-7v-1.34Z"></path>
      </g>
      <path class="cls-2" d="M252.75,223.59v-60.56s0-13.04,14.6-13.91c11.95,1.7,13.02,10.36,13.22,15.92.93,26.5-.07,106.42-.07,106.42-.02,3.51-4.08,6.26-7.63,6.24-6.16-.03-9.82-2.52-14.42-7.11-1.69-1.69-3.12-3.58-4.24-5.6-9.14,9.94-20.89,14.92-35.11,14.85-15.14-.07-27.12-4.4-35.61-12.86-9.98-9.95-13.79-24.19-13.68-45.08v-58.61c.04-8.08,6.38-14.18,13.84-14.18h.61c14.63,1.81,13.37,15.16,13.37,15.16v56.16s-1.26,27.93,27.53,29.87c22.62-.51,28-21.74,27.6-26.72Z"></path>
      <path class="cls-2" d="M456.98,162.99c9.31-9.38,20.3-18.2,34.12-15.28,7.79,1.65,9.61,9.46,9.61,9.46,3.96,16.93-16.87,21.15-16.87,21.15-14.97,4.12-24.34,18.12-24.43,36.52l-.26,51.76c-.03,6.52-5.05,11.41-11.66,11.38l-4.59-.02c-3.63-.02-7.28-1.58-10.01-4.3-2.73-2.71-4.28-6.32-4.26-9.9l.5-100.02s.91-12.8,14.53-13.13c12.16.96,13.33,12.38,13.33,12.38Z"></path>
      <path class="cls-2" d="M1008.69,162.8c-8.63-8.55-22.68-13.11-40.62-13.19-9.24-.04-22.56,1.35-33.56,8.25-10.47,6.56-16.16,16.64-16.44,29.13-.21,9.19,2.87,16.95,9.16,23.06,5.6,5.43,13.48,9.36,24.09,12.01l24.67,6.16c13.74,3.65,14.79,7.9,14.69,12.29-.11,4.95-2.28,8.57-6.62,11.07-4.28,2.47-10.57,3.75-18.18,3.72-7.36-.03-13.47-1.2-17.69-3.37-4.2-2.17-6.48-5.25-7.17-9.72-.43-2.79-2.98-4.99-5.79-5.01l-15.53-.07c-2.71-.01-4.77,2-4.8,4.67-.09,8.76,3.14,16.67,9.34,22.88,9.17,9.18,24,14.08,42.88,14.17,13.2.06,25.32-2.91,34.11-8.38,10.74-6.67,16.56-16.85,16.85-29.45.21-9.17-2.91-16.93-9.27-23.07-5.6-5.41-13.45-9.33-23.99-12l-23.77-5.95c-15.55-3.87-15.43-9.05-15.37-11.84,0-.03,0-.06,0-.09.08-13.25,16.09-14.86,22.97-14.93.34,0,.68,0,1.01,0,21.04.1,22.36,9.94,22.8,13.21.38,2.84,2.95,5.1,5.81,5.11l15.29.07c2.73.01,4.81-2.03,4.8-4.73-.02-9.45-3.36-17.76-9.68-24.01Z"></path>
      <path class="cls-2" d="M401.35,159.37c-10.15-7.24-24.65-11.11-41.95-11.19-23.81-.11-43.66,8.01-55.9,22.86-4.36,5.3-5.24,12.45-2.29,18.66,2.98,6.28,9.17,10.21,16.15,10.24h1.06c2.38.02,4.48-1.56,5.11-3.84,4.08-14.67,16.53-22.71,35.05-22.62,17.52.08,26.95,6.4,26.92,12.3-.03,6.34-11.57,9.92-30.15,13.64-1.79.35-3.59.69-5.4,1.04-28.55,5.45-60.9,11.63-61.04,40.54-.06,11.3,5.01,20.76,14.67,27.35,9.02,6.16,21.77,9.45,36.86,9.52,18.56.09,34.97-5,47.19-14.48,1.38,11.96,11.71,14.42,20.59,14.46l4.45.02c2.91.01,5.29-2.32,5.3-5.21v-80.06c.07-13.93-5.68-25.42-16.64-33.23ZM385.55,221.57c-.07,13.83-9.43,25.98-22.75,29.55-5.78,1.55-11.96,2.35-17.88,2.32-10.97-.05-23.76-3.3-23.71-12.28.05-9.32,13.02-12.57,34.38-16.83,1.42-.28,2.86-.57,4.26-.85,10.2-2,18.81-4.13,25.74-7.22l-.03,5.32Z"></path>
      <path class="cls-2" d="M885.61,159.7c-10.08-7.19-24.49-11.03-41.67-11.11-23.65-.11-43.37,7.95-55.53,22.71-4.33,5.26-5.21,12.37-2.28,18.54,2.96,6.24,9.11,10.14,16.05,10.17h1.05c2.37.02,4.45-1.55,5.08-3.81,4.06-14.58,16.42-22.56,34.82-22.47,17.41.08,26.77,6.36,26.74,12.22-.03,6.29-11.49,9.85-29.95,13.55-1.77.35-3.56.69-5.36,1.03-28.35,5.42-60.49,11.55-60.64,40.27-.06,11.23,4.98,20.62,14.57,27.16,8.96,6.11,21.62,9.38,36.62,9.45,18.44.09,34.73-4.97,46.87-14.39,3.61,7.4,11.24,12.52,20.06,12.56l4.42.02c2.89.01,5.25-2.31,5.27-5.18l.39-77.72c.07-13.83-5.64-25.25-16.52-33.01ZM869.91,221.49c-.07,13.74-9.36,25.81-22.6,29.35-5.74,1.54-11.88,2.34-17.76,2.31-10.89-.05-23.6-3.28-23.55-12.2.05-9.25,12.93-12.49,34.15-16.72,1.41-.28,2.84-.57,4.23-.85,10.13-1.99,18.69-4.11,25.56-7.17l-.03,5.28Z"></path>
      <path class="cls-2" d="M591.24,238.7c-8.5,7.93-20.22,14.01-34.36,13.94-20.45-.1-34.03-11.85-36.47-31.05l97.39.45c4.44.02,8.13-3.55,8.23-7.95.84-37.2-26.56-63.31-66.63-63.5-19.25-.09-36.84,6-49.54,17.15-13.02,11.44-20.42,27.82-20.84,46.12-.42,18.82,5.99,34.88,18.54,46.44,12.16,11.2,28.94,17.17,48.54,17.26,23.16.11,38.78-5.14,53.33-17.16,0,0,7.65-6.07,9.03-11.67,1.38-5.6.95-13.16-8.22-16.83-9.3-3.73-14.89,2.96-19,6.79ZM521.89,203.07c4.77-14.43,15.53-29.08,39.51-28.97,24.77.12,34.43,16.39,38.18,29.34l-77.69-.36Z"></path>
      <g>
        <g>
          <path class="cls-2" d="M452.08,57.63c4.32-2.46,6.76-6.93,6.76-12.56,0-10.21-7.41-16.06-20.34-16.06h-24.53v58.86h26.62c13.26,0,20.87-5.94,20.87-16.3,0-6.76-3.15-11.44-9.38-13.94ZM423.95,53.89v-16.41h14.28c4.84,0,10.61,1.43,10.61,8.25s-5.77,8.17-10.61,8.17h-14.28ZM451.46,70.84c0,7.09-6.15,8.57-11.31,8.57h-16.2v-17.22h16.2c4.23,0,11.31,1.12,11.31,8.65Z"></path>
          <path class="cls-2" d="M486.72,43.41c-13.21,0-22.44,9.27-22.44,22.54s9.23,22.54,22.44,22.54,22.44-9.27,22.44-22.54-9.23-22.54-22.44-22.54ZM486.72,79.87c-7.56,0-12.45-5.46-12.45-13.92s4.89-13.92,12.45-13.92,12.45,5.46,12.45,13.92-4.89,13.92-12.45,13.92Z"></path>
          <path class="cls-2" d="M516.99,28.92c-2.76,0-5.01,2.21-5.01,4.93v49.18c0,2.72,2.25,4.93,5.01,4.93s5.01-2.21,5.01-4.93v-49.18c0-2.72-2.25-4.93-5.01-4.93Z"></path>
          <path class="cls-2" d="M533.7,43.69c-2.75,0-4.99,2.21-4.99,4.92v33.63c0,2.71,2.24,4.92,4.99,4.92s5-2.21,5-4.92v-33.63c0-2.71-2.24-4.92-5-4.92Z"></path>
          <path class="cls-2" d="M580.69,42.97c-3.29,0-6.24,2.2-7.34,5.47l-9.57,28.42-9.9-29.19c-.95-2.81-3.49-4.7-6.31-4.7h-5.57l14.65,40.58c.95,2.65,3.4,4.43,6.09,4.43h1.9c2.65,0,5.06-1.76,6-4.37l14.68-40.64h-4.63Z"></path>
          <path class="cls-2" d="M623.71,64.1v-5.59c0-9.75-7.15-15.58-19.12-15.58-10.19,0-17.77,4.81-19.79,12.55l-.25.97,1.83.61c3.36,1.12,7.14.13,9.41-2.47,1.98-2.28,4.94-3.43,8.8-3.43,2.82,0,9.39.74,9.39,7.6v1.09l-9.97.51c-16.27.84-19.68,8.32-19.68,14.44,0,7.91,6.25,13.22,15.55,13.22,6.5,0,11.69-1.19,14.93-5.72l.02.2c.4,3.41,3.34,5.5,6.83,5.5h2.05l-.02-1.26c0-7.68.02-15.12.02-22.65ZM613.9,67.83c-.74,6.91-5.92,11.81-12.72,11.81-4.46,0-7.13-1.9-7.13-5.09,0-2.56,1.28-5.58,11.29-6.22l8.55-.5Z"></path>
          <path class="cls-2" d="M258.72,63.28v-5.59c0-9.75-7.15-15.58-19.12-15.58-10.19,0-17.77,4.81-19.79,12.55l-.25.97,1.83.61c3.36,1.12,7.14.13,9.41-2.47,1.98-2.28,4.94-3.43,8.8-3.43,2.82,0,9.39.74,9.39,7.6v1.09l-9.97.51c-16.27.84-19.68,8.32-19.68,14.44,0,7.91,6.25,13.22,15.55,13.22,6.5,0,11.69-1.19,14.93-5.72l.02.2c.4,3.41,3.34,5.5,6.83,5.5h2.05l-.02-1.26c0-7.68.02-15.12.02-22.65ZM248.91,67.01c-.74,6.91-5.92,11.81-12.72,11.81-4.46,0-7.13-1.9-7.13-5.09,0-2.56,1.28-5.58,11.29-6.22l8.55-.5Z"></path>
          <path class="cls-2" d="M380.86,63.28v-5.59c0-9.75-7.15-15.58-19.12-15.58-10.19,0-17.77,4.81-19.79,12.55l-.25.97,1.83.61c3.36,1.12,7.14.13,9.41-2.47,1.98-2.28,4.94-3.43,8.8-3.43,2.82,0,9.39.74,9.39,7.6v1.09l-9.97.51c-16.27.84-19.68,8.32-19.68,14.44,0,7.91,6.25,13.22,15.55,13.22,6.5,0,11.69-1.19,14.93-5.72l.02.2c.4,3.41,3.34,5.5,6.83,5.5h2.05l-.02-1.26c0-7.68.02-15.12.02-22.65ZM371.06,67.01c-.74,6.91-5.92,11.81-12.72,11.81-4.46,0-7.13-1.9-7.13-5.09,0-2.56,1.28-5.58,11.29-6.22l8.55-.5Z"></path>
          <path class="cls-2" d="M654.14,52.04l2.99-.03v-9l-1.03-.06c-1.53-.08-2.35-.08-3.61-.08-5.94,0-10.73,2.62-13.72,7.43l-.38-2.96c-.27-2.09-2.05-3.65-4.15-3.65h-5.54s0,1.04,0,1.04c-.06,7.64-.06,14.85-.06,22.52l.13,20.69h4.11c3.34,0,6.06-2.67,6.06-5.96v-14.43s-.05-15.5,15.21-15.52Z"></path>
          <path class="cls-2" d="M533.73,28.92c-3.04,0-5.43,2.42-5.43,5.5s2.38,5.5,5.43,5.5,5.36-2.37,5.36-5.5-2.3-5.5-5.36-5.5Z"></path>
          <g>
            <path class="cls-2" d="M665.04,28.92c-3.04,0-5.43,2.42-5.43,5.5s2.38,5.5,5.43,5.5,5.36-2.37,5.36-5.5-2.3-5.5-5.36-5.5Z"></path>
            <path class="cls-2" d="M665.01,42.92c-2.85,0-5.18,2.29-5.18,5.09v34.85c0,2.81,2.32,5.09,5.18,5.09s5.18-2.29,5.18-5.09v-34.85c0-2.81-2.32-5.09-5.18-5.09Z"></path>
          </g>
          <path class="cls-2" d="M331.11,43.21c-2.85,0-5.18,2.29-5.18,5.09v34.85c0,2.81,2.32,5.09,5.18,5.09s5.18-2.29,5.18-5.09v-34.85c0-2.81-2.32-5.09-5.18-5.09Z"></path>
          <path class="cls-2" d="M713.38,58.46c0-9.75-7.15-15.58-19.12-15.58-9.03,0-16.11,3.79-18.95,10.15-.36.82-.36,1.76,0,2.59.38.86,1.11,1.52,2.01,1.82,2.82.94,5.96,0,7.65-2.3,2.01-2.72,5.04-4.04,9.29-4.04,2.82,0,9.39.74,9.39,7.6,0,.61-.5,1.11-1.13,1.15l-8.84.46c-16.27.84-19.68,8.32-19.68,14.44,0,7.91,6.25,13.22,15.55,13.22,6.5,0,11.74-2.47,14.98-7l.14,1.19c.33,2.84,2.78,4.99,5.7,4.99.93,0,1.79-.37,2.42-1.03.63-.66.95-1.52.91-2.42-.31-6.56-.31-13.22-.31-19.66v-5.59ZM703.34,69.26c-1.29,6.18-6.31,10.33-12.48,10.33-4.46,0-7.13-1.9-7.13-5.09,0-2.56,1.28-5.58,11.29-6.22l7.07-.41s.05,0,.08,0c.36,0,.69.15.92.42.23.27.33.63.25.98Z"></path>
          <path class="cls-2" d="M741.17,42.88c-5.96,0-11.35,2.5-14.8,6.77l-.22-2.17c-.26-2.56-2.42-4.51-5-4.51h-4.76v44.98h10.24v-24.19c0-7.01,5.22-12.11,12.4-12.11,6.52,0,9.83,3.66,9.83,10.87v25.42h10.17v-25.84c0-12.41-6.35-19.24-17.87-19.24Z"></path>
          <path class="cls-2" d="M802.28,86.03c-.44-7.34-.44-14.45-.44-21.98v-5.59c0-9.75-7.15-15.58-19.12-15.58-10.19,0-17.77,4.81-19.79,12.55l-.25.97,1.3.43c3.59,1.19,7.52.18,10.26-2.66,1.97-2.04,4.82-3.07,8.48-3.07,2.82,0,9.39.74,9.39,7.6v1.09l-9.97.51c-16.27.84-19.68,8.32-19.68,14.44,0,7.91,6.25,13.22,15.55,13.22,6.54,0,11.8-2.5,15.04-7.08.91,3.64,4.25,6.27,8.16,6.27h1.14l-.07-1.13ZM792.03,67.79c-.74,6.91-5.92,11.81-12.72,11.81-4.46,0-7.13-1.9-7.13-5.09,0-2.56,1.28-5.58,11.29-6.22l8.55-.5Z"></path>
          <path class="cls-2" d="M131.21,29.51h-3c-3.25,0-6.11,1.96-7.29,4.98l-20.94,53.46h5.8c2.75,0,5.25-1.72,6.23-4.28l3.28-8.58h27.25l3.32,8.7c.95,2.5,3.39,4.17,6.06,4.17h6.28l-21.52-54.71c-.89-2.26-3.04-3.73-5.47-3.73ZM139.43,66.91h-21.05l10.52-27.62,10.52,27.62Z"></path>
          <rect class="cls-2" x="160.69" y="29.51" width="10.05" height="58.44" rx="5.02" ry="5.02"></rect>
          <path class="cls-2" d="M205.23,74.23c-2.16,2.8-5.14,4.23-8.85,4.23-7.62,0-12.54-5.42-12.54-13.81s4.92-13.81,12.54-13.81c3.61,0,6.35,1.31,8.39,4.01,1.99,2.63,5.49,3.68,8.73,2.61l3.22-1.06-.35-1.03c-2.9-8.45-10-13.11-19.99-13.11-13.3,0-22.59,9.2-22.59,22.38s9.29,22.38,22.59,22.38c9.86,0,17.5-4.9,20.42-13.1l.37-1.03-3.37-1.11c-3.19-1.05-6.64-.08-8.58,2.43Z"></path>
          <path class="cls-2" d="M268.56,29.51c-2.77,0-5.03,2.25-5.03,5.03v48.39c0,2.77,2.25,5.02,5.03,5.02s5.02-2.25,5.02-5.02v-48.39c0-2.77-2.25-5.03-5.02-5.03Z"></path>
          <path class="cls-2" d="M320.06,64.2V31.19c0-1.37-1.12-2.49-2.49-2.49h-1.34c-3.43,0-6.22,2.79-6.22,6.23v14.51c-3.4-4.11-8.26-6.26-14.21-6.26-11.99,0-20.05,9.03-20.05,22.46s8.06,22.3,20.05,22.3c6.16,0,11.17-2.31,14.57-6.71,1.04,3.45,4.25,5.91,7.95,5.91h2.25l-.07-1.14c-.44-7.28-.44-14.34-.44-21.81ZM310.01,65.65c0,8.34-4.75,13.73-12.11,13.73s-12.11-5.39-12.11-13.73,4.75-13.89,12.11-13.89,12.11,5.45,12.11,13.89Z"></path>
        </g>
        <path class="cls-5" d="M331.7,18.55l2.03,5.78c.42,1.2,1.36,2.14,2.56,2.56l5.78,2.03-5.78,2.03c-1.2.42-2.14,1.36-2.56,2.56l-2.03,5.78-2.03-5.78c-.42-1.2-1.36-2.14-2.56-2.56l-5.78-2.03,5.78-2.03c1.2-.42,2.14-1.36,2.56-2.56l2.03-5.78Z"></path>
        <path class="cls-2" d="M340.03,8.43l1.49,4.14c.22.6.69,1.07,1.28,1.28l4.14,1.49-4.14,1.49c-.6.22-1.07.69-1.28,1.28l-1.49,4.14-1.49-4.14c-.22-.6-.69-1.07-1.28-1.28l-4.14-1.49,4.14-1.49c.6-.22,1.07-.69,1.28-1.28l1.49-4.14Z"></path>
        <path class="cls-3" d="M333.12,0l.98,2.8c.2.58.66,1.03,1.24,1.24l2.8.98-2.8.98c-.58.2-1.03.66-1.24,1.24l-.98,2.8-.98-2.8c-.2-.58-.66-1.03-1.24-1.24l-2.8-.98,2.8-.98c.58-.2,1.03-.66,1.24-1.24l.98-2.8Z"></path>
      </g>
      <path class="cls-2" d="M857.81,37.01v10.11c-3.23-2.94-7.94-4.67-13.13-4.67-5.56,0-10.67,1.95-14.37,5.49-4.25,4.06-6.49,10.04-6.49,17.3,0,15.74,10.48,22.78,20.86,22.78,5.57,0,10.58-1.98,13.81-5.33,1.24,2.67,4.11,5.26,7.36,5.26h3.39l-.08-58.98h-2.93c-4.64,0-8.41,3.61-8.41,8.04ZM858.22,65.23c0,9.81-6.35,13.29-11.79,13.29-8.64,0-11.71-7.16-11.71-13.29s3.07-13.29,11.71-13.29c5.44,0,11.79,3.48,11.79,13.29Z"></path>
      <path class="cls-2" d="M897.03,43c-6.81-.02-13.04,2.15-17.53,6.11-4.6,4.06-7.21,9.87-7.35,16.36-.14,6.67,2.14,12.36,6.59,16.45,4.31,3.96,10.26,6.07,17.19,6.09,12.42.04,20.49-5.08,23.31-14.79.16-.54.05-1.12-.28-1.56-.33-.44-.86-.71-1.42-.71h-1.52c-4.3-.02-7.64,1.39-9.65,4.08-2.22,2.96-5.17,4.16-10.18,4.14-7.24-.02-12.05-4.18-12.93-10.99l34.48.1c1.57,0,2.88-1.26,2.91-2.82.27-13.19-9.44-22.43-23.63-22.47ZM883.78,61.62c1.68-5.12,5.48-10.32,13.97-10.29,8.77.03,12.2,5.79,13.54,10.38l-27.5-.08Z"></path>
      <rect class="cls-2" x="375.14" y="396.41" width="296.69" height="22.16"></rect>
      <rect class="cls-4" x="78.46" y="396.41" width="296.69" height="22.16"></rect>
      <rect class="cls-1" x="668.44" y="396.41" width="296.69" height="22.16"></rect>
      <path class="cls-2" d="M750.32,278.73c9.03-.08,14.37-7.19,14.37-16.22-.01-21.15-.03-56.38.01-65.4.05-12.62-4.56-40.04-42.41-47.69-37.85-7.65-58.73,14.04-58.73,14.04l-.31-12.26c-16.43-3.64-24.3,2.44-28.04,8.32-2.25,3.55-3.28,7.74-3.26,11.94l.26,92.52c.02,8.21,6.69,14.86,14.9,14.86h0c8.22,0,14.88-6.65,14.9-14.87l.09-50.71c.01-8.01,2.04-15.96,6.29-22.75,5.2-8.3,14.53-16.54,31.02-16.3.33,0,.66.01.98.02,19.05.53,34.24,16.09,34.48,35.15l.66,52.66s-1.42,16.8,14.81,16.68Z"></path>
      <path class="cls-2" d="M118.19,156.1c.24.5,3.44,6.03-7.33,12.07-2.35,1.31-2.07,4.84-.66,7.06,1.38,2.19,4.02,3.17,6.56,2.42,10.99-3.23,27.94-10.86,35.62-20.15,2.53-3.06,3.87-7,3.48-10.95-1.57-15.61-26.76-18.6-46.42-15.62C51.6,138.98-19.01,200.39,4.72,262.16c24.78,55.85,106.88,32.24,137.05-6.89,35.33-39.27,4.14-87.98-44.99-65.42-16.07-20.39-51.61,1.95-50.68,29.49.6,11.36,3.21,20.26,7.49,19.09,5.29-3.15-3.17-15.06,12.23-28.45,7.91-6.88,20.47-.21,16.42,12.22-1.06,3.02,3.11,5.26,5.03,2.64,2.49-2.9,8.33-9.68,15.36-14.57,8.16-5.67,16.18-5.2,20.96-2.91,16.11,9.44.53,31.48-13.49,42.28-17.54,13.52-32.06,18.29-49.86,15.87-27.65-7.57-34.29-32.01-20.79-61.81,11.34-27.31,39.54-41.31,51.19-45.42,0,0,24.23-9.07,27.58-2.19Z"></path>
    </g>
  </g>
</svg>