<?xml version="1.0"?>
<svg id="Capa_1" data-name="Capa 1" xmlns="http://www.w3.org/2000/svg" viewBox="0 0 1920 1080">
  <defs>
    
  </defs>
  <g>
    <path class="cls-3" d="M1083.82,425.98c.81-6.86-3.45-9.07-8.41-11.04-5.35-2.13-6.3-9.77-9.03-14.07-3.16-4.99-8.12-8.08-10.56-13.57-1.64-3.7,3.6-6.8,1.94-15.37-.49-2.55-.65-5.02-1.33-7.32-.11-.39-.16-1.02-.1-1.42-1.96-4.43-3.97-8.76-7.56-12.41-.4-.4-.67-1.83-.26-1.95l4.4-1.3c-3.24-3.38-4.88-7.05-7.16-10.78-1.1-1.79-1.67-5.02.39-6.16,2.95.98,4.9,4.77,7.85,5.42l4,.89,5.4,13.31c1.73,4.26.07,9.18-2.51,12.53l-.18,1.32c-.36,2.63,1.2,10.25,3.8,12.86l.56.46c1.36.68,2.53-.91,3.6-1.71,2.83.6,5.31,2.35,7.65,3.59.54-.07,1.29.06,1.74-.22.73-.45.27-1.48.31-2.12-.95-.4-1.71-1.18-2.26-2.38,1.07-1.16,2.26-1.52,3.48-1.67.14-.88-.42-1.4-1.07-1.8-.6-.03-1.79.3-2.21-.41-.36-.61.21-1.6.27-2.23-.02-.33-.18-.67-.47-.84-1.24.21-3.67,1.74-4.73.83-1.57-1.44.61-3.58,1.45-4.8,1.27-1.86.11-4.12.09-6.14-.02-3.4.93-6.59.6-10.02-.47-4.81-1.22-9.45-2.44-14.04-.56-2.12-1.99-3.71-3.92-4.6-4.83-2.23.57-5.33-3.04-7.56-13.54-8.4-9.53-14.38-20.79-22.08,1.65-10.78,20.93,1.92,26.85-18.61,2.1-7.3.9-13.87-3.18-20.08-.3-.46-1.05-.61-1.29-1.2-4.77-4.04-9.95-6.73-16.49-7.33-12.29-1.13-10.76-.27-18.27,5.57-2.79,2.17-4.37,5.37-4.74,8.82-.85,7.9-5.46.76-9.94,15.37-4.43-2.2-8.14-5.41-12.61-6.99-3.29-1.17-5.72-3.19-6.58-6.8-1.22-5.11-3.3-9.79-4.92-14.55-1.21-3.55,1.82-7.53,3.44-10.48l.04-2.32,14.91,1.38c2.94.27,5.93.37,8.19-2.09-.27-2.75-19.59-4.49-15.17-7.09l1.32-.78c-1.08.63,9.25-8.99,8.09-11.04-1.87-3.3-14.32,3.03-17.07,4.4-13.39,6.69-4.57,7.5-23.45,6.48-5.9-.32-17.27-1.43-20.86,2.6-.32.8,1.16,1.21,1.67,1.27l13.71,1.71c2.81.35,5.85-.54,8.29,1.75-3.84,3.68-5.88,7.94-9.46,4.62l-4.24-3.94c-.55.16-1.23-.22-1.8-.11-.69.97-2.6,1.4-2.41,3.1.13,1.12,2.07,2.84,1.04,4.07-1.47,2.21-9.94-.19-11.18,2.47,3.44,1.62,7,1.45,10.6,1.85l14.86,1.66c.8.09,1.6-.38,2.03-.73.6-.5-.09-1.51-.01-2.35.14-1.66,2.2-1.79,3.36-2.29.33-.14.53.42.55.65,3.11,2.1,4.68,5.71,5.23,9.38.05.31.09.73.03,1.03-.33,1.55.47,3.09.5,4.84l.16,11.14.79,2.84c.93.13,1.14,1.07,1.44,1.81.35.32.98.8,1.12,1.31,1.62.7,2.63,2.44,4.13,3.33.46.28.58,1.17,1.25,1.27.19.59.64,1.04,1.24,1.22.18.19.36.37.54.55.14.27.36.49.63.64,1.86,1.89,3.09,3.89,4.25,6.3,1.2,2.51,4.45,3.45,5.84,6,2.01,3.7,4.94,8.44,4.98,12.92.06,8.47,1.18,15.96,2.32,24.23l3.23,23.41c.14,1.01,2.04.59,2.27,1.15,4.45,10.55-2.73,22.54-4.71,35.99-1.12,7.56,3.85,15.38,4.05,21.3l.13,3.85c1.01.74-1.1,7.55.7,11.03l2.31,1.54c-2.56,1.68-3.18,4.36-4.65,6.69-3.68,5.85-14.72,6.48-12.67,12.25,1.16,3.27,14.18,2,21.08-2.71,5.66-3.87,12.58-2.6,17.67-9.06,0-1.91-5.58-7.11-6.77-10.6,1.23-.74,3.75-.91,3.67-2.49-.35-7.03-7.82-18.13-5.72-26.95.65-2.72,2.27-4.99,3.57-7.37,1.76,6.06,4.03,11.02,7.1,16.24,5.24,8.89,13.39,14.21,17.75,23.38.39.3.84.48,1.32.59,1.14-.7,1.85-1.7,3.72-2.37.63,2.93,2.37,5.62,2.59,8.8.24,3.41-3.79,12.65,1.04,13.88,7.3,1.86,13.4-7.34,14.83-12.27.64-2.19-1.3-4.56-1.83-6.62-.91-3.51-.2-7.48.17-10.62Z"></path>
    <path class="cls-3" d="M1215.23,443.37c-.14-.24.32-.94-.12-1.14-.31-.15-1.06.48-1.48.42-1.55-.22-4.8-2.06-4.84-4.03-.13-7.28-.59-14.4.11-21.62-.22,2.21,4.28-8.88-.96-16.65-4.74-7.04-.55-15.31-2.85-25.11,2.11-5.32-.53-17.45-.9-23.45,5.35-2.66,9.81-5.46,13.24-10.19,5.67-.02,10.45-2.72,15.8-3.5,2.31.23,12.28,2.6,12.79,4.62.19.76.38,2.08-.18,2.69-.87.95-.55,1.93-.86,2.68h.73c-.16,6.71,4.78,13.23,11.28,12.97,5.64-.23,11.52-7.05,9.29-11.74.56,0,1.86.29,2.34-.47,1.1-1.76.86-3.89.66-5.91,1.03-.59,2.29-.17,3.18-1.33l-6.69-6.56c-2.31-.56-5.16-.85-7.44-2.18-9.04-5.27-12.37-4.72-21.55-7.68l-.66-.1c-.33-.05-.68.02-1.02-.03-.45-.07-1.34.08-1.37-.56-.73.06-1.55-.43-2.26-.45-.37.21-.83.75-1.37.47-.38-.19-.97-.45-.58-.94-.58.09-1.16-.22-1.72-.2-.48.02-.89.22-1.21.21-.49-.02-1.08-.52-.82-1.02.19-.38,1.04-.48,1.12-.79.2-.74.33-1.56,1.05-1.99.04-.63.21-1.23.3-1.85.43-3.18.69-6.23.41-10.01,3.33-.31,7.21.97,8.02,4.23.36.13,1,.66,1.38.55,1.68-7.15-7.68-7.22-3.15-8.98-2.54-3.19-6.84-4.17-10.19-6.59l-10.86-7.87c-.94-.68-2.07-.85-2.96-1.72-.98-.95-3.26-.56-4.19-1.71l-7.57.53-1.2.12c-.23.51-.7.93-1.25,1.08-8.2,2.29-13.86,9.05-12.94,18.01.26,2.53-1.03,4.93-.65,7.3l1.74,10.65,1.76,6.41c.36,1.3-1.78,2.61-2.92,3.27-4.98,2.89-8.62,6.49-11.96,11.13-5.82,8.06-11.11,16.26-16.42,24.68-2.19,3.47-2.58,6.89-2.87,10.88-1.14,15.46,2.36,17.47,3,26.46.02.33.09.94.18,1.24l2.31,7.07c.75,1.04,2.72.63,3.93,1.34-2.03,7.99,2.25,15.67.38,21.2-1.27,3.75-3.76,8.16-2.06,12.3,2.37,1.05,5.23,2.89,7.58,4.61,4.82,3.53,12.29,2.92,17-.31,1.68-1.15.54-3.82.72-5.11-1.54-.95-2.59-1.99-4.04-2.68,1.63-1.53,1-3.12-.09-4.29-1.06-.03-2.38-.03-3.23-.68-.83-.64-1.06-2.28-.73-3.48,1.74-6.3,1.86-12.46,2.92-18.97.48-2.95,4.52-5,6.84-5.16.3,2.02.18,3.21,1.02,4.11.53.56,2.26.24,3.24.81.69,5.02,1.7,10.59,3.03,15.52.66,2.44-.28,4.05-1.26,5.83-1.5,2.74-1.07,8.7-1.58,12.39,2.77,1.57,5.71.68,8.73.73,4.52.06,12,4.78,20.82,2.58,1.91-.48,3.53-1.46,3.76-3.11,1.15-8.22-5.76-2.21-9.68-8.91ZM1190.02,385.66c-1.03-1.29-2.28-2.4-3.12-4.23-.46-1.01,1.84-2.65,2.47-1.97,1.35,1.48.7,3.65.65,6.19Z"></path>
    <path class="cls-3" d="M994.29,369.37c-6.15-4.98-5.65-11.02-10.3-17.92-1.03-1.54-1.49-3.19-.75-5.19-4.98-3.1-9.49-6.38-13.81-10.36-8.93-8.23-15.69-6.73-16.58-8.35-.89-1.61,1.23-3.03,2.89-7.78.49-1.39,2.2-2.67,1.73-4.5.36.38.54.13.74-.15.32-.46.13-.91.19-1.3.15-1.16.33-2.32.27-3.5,1.86-2.88,2.22-6.6,2.27-10.01,0-.34-.15-.75-.06-1.08-1.11-.73-.81-2.52-2.17-2.97-.03-.37-.16-.74-.14-1.11.08-1.82-1.77-3.16-2.07-4.99-.23-1.41-.01-2.87-1.75-3.67-1.74-.8-1.73-3.02-2.81-4.01-.88-.8-3.11-.22-2.75-1.96.05-.25-.08-.59-.18-.94-.14-.47-.68-.31-1.11-.26,1.62,3.07-5.49.44-7.1.01-.88-.23-2.5-.18-3.4-.01-7.27,1.36-13.81,4.3-19.66,9.08-6.88,5.62-13.66,14.78-9.36,24.19l.87-3.77,1.62,6.92c3.37,1.57,5.2,5.57,3.57,8.73-.14.84-.15,2.2-.03,3.07,2.74.64,4.23,4.87,6.68,6.62,1.98,1.41,3.92,2.53,5.64,3.9.68-.25,1.55.08,2.25.05,1.17-.91,2.89-1.02,4.36-.21-.59,2.58-1.95,4.24-3.67,5.45-.37.26-.49.97-1.04,1.05.63.94,2.35-.18,3.21.43,1.43,1.01.77,3.49.79,4.96l.09,7.02c.74.27.41,1.36.4,1.99,0,.33.11.76,0,1.07.81.47,1.24,1.54,1.55,2.61,1.08,3.79,2.91,6.95,4.34,10.31.19.45.5,1.27.76,1.65.59.9.67,2.6-.08,3.74-.46.7-.71.99-1.27,1.59-3.38,3.66.41,5.21-2.17,5.49,0,.55.12,1.11.09,1.66,1.27.38,1.91,1.63,2.15,2.88.96.67,1.47,2.28,1.43,3.33,1.27.43,2.23-.06,2.83-1.51.18-.45.59-.93.89-1.01.68-.18.93.79.97,1.58.02.44.04.94.22,1.08.32.24,4.46-1.02,3.88-5.87-.18-1.47.48-3.7,2.23-3.88,3.79-.39-.28,12.11-.25,11.99-2.66,12.53-6.1,14.79-8.62,29.6l-2.49,14.63c-.16.02-.41.18-.58.16-3.14-.44-5.96.36-8.03,2.8l-.04,1.92c2.34,2.17,5.48,3.84,8.82,4.01-2.29.38-.06,5.54-.59,9.47-.1.75.59,1.55.54,2.25l5.89,1.74c-.69-.2,10.36.91,10.44-3.61l.11-6.29c3.39-.24,6.88.26,10.51-.24,3.02-.42,5.9-2.07,9.01-1.97,3.23.1,6.38.79,9.61.02,2.62-.62,3.78-2.54,3.88-4.97.02-.34-.03-.68-.05-1.02-1.58-2-.37-4.57,1.2-6.34-.1-.38.1-.83.03-1.22-.58-.23-.4-.94-.65-1.35-.41-.68-.59-1.37-.64-2.16-3.47-2.44-1.24-7.17,1.25-10.05-.15-.68.03-1.63.03-2.34,0-2.05-.57-13.61,2.19-13.76.12-.49-.1-1.14.11-1.6,1.13-2.55,1.44-5.25,1.87-8.28l1.75-12.32c.74-5.17-.14-9.69-1.89-14.24-.11-.29.03-.66-.06-.95ZM962.34,437.41c-1.56-.2-2.54-1.88-2.04-3.44l1.13-3.57c.28-.88.35-1.84.9-2.16.55-.32,2.32-1,2.39-.24l.62,7.22c.14,1.62-1.95,2.33-2.99,2.2Z"></path>
    <path class="cls-3" d="M912.92,363.5c1.33-2.2,2.31-3.43,2.91-5.82-4.11-1.59-8.28-3.11-12.47-2.61,0,.26.04.68-.07.91-.83,1.81,1.04,3.98.44,6.03-.95,3.26-8.27-2.91-10.3-5.95-1.02-1.52-2.29-2.54-3.7-3.35l.07-1.97c2.69-3.91,3.17-16.02,2.76-21.04-.34-4.12-2.97-7.38-5.43-10.24-4.15-4.81-9.48-6.34-15.51-7.17-8.28-1.13-15.79.83-21.5,7.22-5,5.6-9.58,11.73-12.98,18.54-1.48,2.97-1.64,6.35-.04,9.17,1.39,2.46,4.16,4.74,7.3,4.74-.54-3.85-6.98-6.72-5.29-13.48l2.75,6.14c1.22,2.71,3.71,4.52,4.28,7.34.26.12.43.43.67.58.2.13.63-.04.87.13.42.31.25.84.17,1.24-.06.33.05.7.03,1.04,1.08.21.73,1.52.77,2.35.04.77.14,1.58,0,2.35.83.52,1.04,1.52,1.12,2.45.09.55.66.87,1.05,1.12,1.42-.16,1.85,1.36,2.48,2.39.4.28.5,1.02,1.13,1.12.26.17.48.4.62.68,3.52,2.51,3.48,3.09,7.73,4.06-4.95,3.48-8.98,7.41-12.7,12-1.25,1.54-2.83,2.71-4.56,3.66-11.37,6.26-14.99,12.46-21.16,15.77-2.85,1.53-5.46.31-8.29-.1l-10.46-1.53c-1.42-.21-3.46-1.31-4.07.4,2.24,1.66,1.54.68,1.72,2.02-1.68.82-2.74,2.5-3.08,4.66-2.39.73-4.67.63-6.88.78-.21.24-.93.03-1.18.27-.32.31-.55.74-.54,1.4l.06,11.17c10.98,4.73,9.27,2.31,14.3.96,1.34-.36,2.23-1.02,2.69-2.04-.31-1.6,0-3.22.17-4.83,2.15-.6,4.37-1.37,6.7-1.67.84,1.61-.61,2.87-.72,4.33-.16,2.05,1.98,3.28,3.25,4.39,2.3,2.67-6.8.47-9.96,7.84-.52,1.21-.88,2.53-.34,3.3,2.08,3,4.72.5,9.71,1.25l8.25,1.23c.18.49.71.6,1.18.59.19,0,.41.13.59.09.05.4-.64.62-1.2.54l-8.21-1.22c-.29-.04-.55.15-.56.34-.02.33-.02.72.03.9.15,0,.31,0,.46.02l8.84,1.11c2.64.33,4.09.36,6.04,2.17,3.22,3,7.03,5.23,11.55,5.01l.53,3.63c2.34,1.1,4.44-.15,6.64-1.79-.28-.73-6.28,2.36-5.86,0,1.77-.43,3.33-.37,4.62-.92l1.24.25c8.29,2.25,7.7,16.04,16.11,9.26,3.17-2.55,1.18-6.34,1.6-8.87l.68-.08c9.93,3.79,11.09.06,15.38.13,4.23.07,10.48,2.58,14.62-.19,6.07-4.56,10.48-12.46,12.44-19.85,1.86-7.02-2.16-23.47-4.13-30.88-1.44-5.44-5-9.76-7.39-14.76-2.99-6.26-7.12-11.34-11.43-17.16,4.62.87,7.06,4.38,11.04,5.59,1.2.36,2.93-.17,3.24,1.23-.64.79-2.98,2.35-2.01,3.68,1.73,2.36,5.12,4.8,8.12,5.23,2.01.29,2.79-2.94,3.07-4.32,5.38,3.98,2.89.58,8.23,3.68,2.02-3.26-.08-5.76-1.34-8.53-1.55-3.4-2.94-6.45-6.82-8.09ZM810.62,411.99c-.55.44-1.21.54-1.85.5-.07-.77-.28-1.51-.69-2.16-.02-.28.04-1.01.54-1,1.13.02,1.83.86,2.68.98,0,.65-.2,1.3-.68,1.68ZM850.98,407.95c-2.33.94-4.75.12-8.09.33,1.31-1.9,3.78-2.04,5.74-3.12,2.76-1.52,5.12-4.56,8.1-5.5.5-.58,1.09-1.53,2.53-1.21.5.11.75.76.53.9l-.72.45c-.28.17-.08,1.01-.07,1.48.02.69,0,1.4-.45,1.97l-.14,1.68c-.11,1.33-.47,2.71-1.04,4.2-1.58-.29-5.9,0-4.68-1.06-.49,0-1.27-.21-1.71-.11Z"></path>
    <path class="cls-3" d="M1334.05,402.47c-.32-3.22-.29-5.87.31-8.57.16-.73-.07-2.14-.11-2.88-.28-.72-.14-2.11-1.1-2.35.17.89-.4,1.65-.54,2.48-.15.88-.49,1.53-.98,2.24-.56.82-.45,2-.69,2.9-.35,1.26-.46,2.85-1.64,3.56.07.16-.01.42,0,.59.05.51-.64.78-.7,1.19-.06.39-.55.88-.56,1.21.15.72-.57,1.15-.67,1.69-.22,1.19-1.46,2.02-1.76,3.08-.28.98-.96,1.58-1.33,2.41-1.78,4-4.62,7.33-6.89,11.05-.07.11-.07.31-.09.44-.5-.01-1.01.16-1.24.63-.71.06-1.46.1-2.18.08l-1.23-.67c-.2-.11-.39-.36-.55-.53-2.9-3.27-7.07-4.39-11.62-3.32-8.2,1.92-7.14-3.4-15.83-3.98-.72-.05-1.63-.6-1.52-1.21.25-1.45,2.77-1.17,4.86-3.6.98-1.14-.1-2.76.32-4.11,1.38-4.34,2.19-8.42,1.55-12.75l-.15-1.03c-14.31-16.38-12.84-6.7-23.85-11.5-1.51-.66-3.46-.55-4.3-1.87-.6.03-1.21-.14-1.81-.15-.73.4-1.55.59-2.38.64l-.68.63c-.86,1.71-1.19,3.69-2.35,5.23.08.99.26,2.01.21,3.01,2.22,1.3,1.88,4.15,1.06,6.38-.02.31.28.75.17,1.05,2.52,1.6,4.67,3.49,7.78,4.51.97.32.57,2.4.08,3.01l-4.03,5.01c-.05.33.14.71.06,1.03-.59,2.46-1.39,5.24-4.05,5.9l-.71.18c.32.53.14,1.5-.06,2.33-.12.5-.68.93-1.46.91l.03.89c.46-.34.78-.35,1.06.03.32.43.65.85.49,1.5l-1.06,4.29c-.54,2.16.26,4.82-1.27,6.45l-3.91,4.17c-3.21,3.43-6.06,5.55-10.3,6.91l-6.07,5.38c0,.39.38.65.44.97,1.76-.1,2.94,2.12,4.73,2.2l10.83.49c3.08.14,6.38.76,8.31-2.07,1.55-2.28,3.93-3.04,6.18-4.38,2.59-1.54,4.59-3.9,7.48-4.39.71-.12,1.55-.11,2.27-.02,4.51.6,8.64,3.53,11.86,6.91-.51,1.47-2.12.34-2.81.48-3.93.82-6.7,4.22-7.29,7.94.05.53.52.85.76,1.26l16.39-.11c.61,0,1.2.18,1.15.62,1.43-.21,3.23.02,4.71,0,2.52-.04,14.99.5,14.9-5.13-.04-2.05-2.78-2.76-3.72-4.19.1-.33.05-1.02.06-1.37,1.22-2.09,3.49-3.55,4.72-5.81l2.21-4.08c-.05-.54.2-1.08.19-1.61-.03-2.24-.47-4.79,1.02-6.58.39-.09.82.05,1.2-.07,1.61-.49,4.01-.11,5.35-1.81,2.04-2.6,5.58-5.17,6.66-8.25.96-2.74,2.1-4.92,3.76-6.84.49-2.43-.81-7.07,3.24-8.07-1.3-.57-2.79.28-2.88-.64Z"></path>
    <path class="cls-3" d="M830.08,444.51c-2.79-3-13.5-1.62-17.37-1.77-.51.51-.75,1.05-1.14,1.6.7,3.31.35,7.04.62,10.76,5.87,4.53,10.98,2.32,18.16,1.43-.16-4.03.73-7.99-.27-12.01Z"></path>
    <path class="cls-3" d="M1135.61,264.57c-8.17-7.11-19.61-11.72-29.86-5.75-7.27,4.23-11.38,11.03-13.26,19.19-1.84,7.95-2.53,15.84.1,23.69,2.38,7.11,5.66,8.18,11.83,10.45-5.95,6.47-7.86,14.27-8.77,22.48-.04.35-.1.74-.08,1.09.26,3.81-.39,7.65-.46,11.75l-.19,10.59c-.13,7.34,7.87,5.82,3.67,8.81.15.43.17,1.28.13,1.76,1.36.9,1.32,2.75,1.51,4.25l.13.95.62.02c.39.03.77-.1,1.15-.12.71-1.77,2.72-2.28,3.82-3.74.4.52.97.9.76,1.75-1.35,2.54-1.3,5.52-2.22,8.18l-.17,1.64-1.81,18.29c-.15,1.51-.27,2.99.9,4.08.82.77,2.34,1.28,3.73,1.16.12.6-.05,1.37.14,1.93-3.97,1.88-5.62,10.08-8.05,11.26-.09.76-.35,1.47-.63,2.17-.07.17.03.4,0,.58l-.13,19.37c0,1.02-.67,1.8-1.54,2.28-1.29,2.69-.69,5.94-.69,8.85.22.28.56.63.49.99-.08.4-.04,1.13-.6.98.11.54.07,1.15.15,1.7,1.87.9,4.04,1.19,5.76,2.36.54-.41,1.7.17,2.28-.12,3.12-1.51,6.36.5,9.5,1.25,1.84.44,5.21-.14,6.95-.14.54,0,1.22-1.2,1.96-.37.3-.09.72.1,1-.02,2.88-1.28,5.05-3.11,6.55-5.9l-.11-2.86c-.47.37-.77-.12-.94-.5-.12-.25-.09-.56-.2-.83-.09-.2-.38-.32-.5-.51-6.63-.86-6.96,3.25-14.19-2.91-.93-.79-2.19-1.4-1.66-2.6.06-.14-.02-.38.08-.5-.16.03-.87.22-.92-.05l-.41-2.37c-.06-.34.08-.72.03-1.06h.58c-.23-.62.42-1.26.49-1.75-.47-1.18,2.77-10.42,3.61-11.24.02-.35-.03-.71.02-1.06.08-.62-.17-1.63.53-1.92l.19-1.55c.66-5.43,3.1-10.62,7.21-14.5l9.38-.64c.88-.06,1.91-.22,2.36-.85.43-.6.21-1.53.22-2.23.4-.17.82-.77,1.39-.71.78.08,1.66.2,2.9-.19-.44-14.59-2.67-28.79-4.72-43.4-.28-2.02.82-4.24.72-6.46-.48-10.29-2.48-20.33-7.06-29.53-.53-1.06-2.18-2.42-1.02-3.62,1.15-1.19,2.84-1.79,3.61-3.13-.29-.12-.33-.89-.88-.72-.19.06-.46.08-.65.06-.26.68-1.24.45-1.83.58-.19.04-.39.01-.59.03.13.36-.06.47-.35.47-.34,0-1.09.12-.87-.39-.59.04-1.19-.06-1.75-.24-2.48-.78-4.18-2.72-6.3-4.13.03-.68,0-1.1.44-1.63,2.21.39,3.84,2.14,6,2.73.67.18,1.58-.13,2.22.11,1.95-1.6,4.08-3.01,5.95-4.72,1.01-.92,1.74-2.36,3.35-2.42-.43-.47.16-.79.51-.94.27-.11.55-.16.81-.16l.54-.02c.3-4.02-1.75-2.93-.42-8.7.04-.15.02-.36,0-.52,5.74-4.32,7.45-3.17,10.54-9.6v-1.03c-.03-1.63,0-3.26,0-4.89v-1.57s-2.65-4.04-2.65-4.04l-10.32-8.97Z"></path>
    <path class="cls-3" d="M793.51,401.53c-1.06-4.16-2.72-7.53-4.25-11.24-1.47-.18-2.53-.12-3.63-.06-15.12-7.65-15.81,4.93-29.62.79l-18.68-5.59c3.19.95-23.17-10.23-21.36-10.18,4.42-.89,5.12,5.15,11.04-.12,1.39-1.24,3.09-1.7,3.86-3.83.67-1.87,2.72-4.22,2.82-6.23-2.35-7.8,5.53-6.8,7.04-16.1,1.63-10.04-2.14-15.64-8.67-22.19-3.06-3.06-6.5-5.2-10.68-6.36-.32-.83-.52-1.49-1.05-2.09-2.03.38-3.7,1.14-6.02.61l4.21-3.42c.66-.53,2.08-.9,2.91-.37.61.39.46,1.23.76,2.87,1.26-.95.89-2.3.72-3.38-.18-1.13-1.02-2.86-2.51-2.49-2.61.64-4.01,3.12-6.5,4.03-.12-1.47,1.14-2.14,1.43-3.18.71-2.55-1.72-5.21-1.75-7.39-.07-4.96-2.26-6.89-5.95-9.2-1.61-1.01-2.13-2.71-4.66-3.12-3.84-.63-7.22-1.02-11.17.12-9.03,2.61-10.06,5.78-11.55,14.41.07-.43-1.99,6.26.7,6.01.19-.02.44.07.63.11-1.05,1.66.46,2.54,1.15,3.89,1.4,2.74,2.2,5.15,4.88,7.01.75.52,1.02,1.75,2.2,1.26.43-.18,1.18.18,1.77.68-4.17,3.53-2.14,12.04-.84,12.76.46.26,1.09-.41,2.23-.42-2,9.46,3.05,13.36,4.85,21.1-.62,1.63-3.34,3.38-4.94,4.21-6.29,3.26-11.16,7.47-15.37,13.1-4.01,5.36-8.44,10.26-11.25,16.43l-7,15.34c-2.21,4.84-3.12,9.97-3.07,14.98,0,.51.4,1.36.11,1.83.86-.16.46.6.66,1.36,1.48,5.6,3.29,11.54,7.29,16.04,2.03,2.28,6.66,2.78,9.48,2.86,4.07.12,6.58,1.42,10.04,2.94,6.19,2.72,14.51-1.89,29.79,3.2,3.49,1.16,7.22,1.22,10.9,1.63,1.44.16,2.67-.92,3.08-2.07,1.8-5.09,7.58-2.72,15.92-7.4,1.24-.7,2.1-1.24,3.32-1.36,1.61,2.76,10.29,3.04,13.31,3.47.27-.5,1.52-.53,1.99-.94.79-.69.1-1.28-.08-2.12-3.86-1.1-8.5,2.35-9.97-.29,1.62-.37,3.17-.86,4.7-1.48,2.53-1.03,5.39-1.98,7.15-4.64,1.02-1.54.6-5.32-1.08-6.4-3.22-2.09-7.35-2.66-10.68-1.85-2.6-1.14,3.06-3.42.71-9.15-2.6-6.36-11.17-6.57-17.12-4.19-5.47,2.18-12.36.25-13.42-4.57-.88-4.01-2.16-7.93-3.96-12.01l9.94.83c2.8.23,5.09-.25,7.87.34,8.58,1.83,17.17,1.62,25.94.5,4.39-.56,9.12-.96,12.4,1.72l1.15.15c.04,1.1-.41,3.42,1.05,4.2,4.58,2.43,13.16-1.74,16.8-5.33ZM691.5,333.3c-.58-1.27-.56-2.61.4-3.55.67-.66,1.95-2.29,3.14-1.35-1.23,2.38-2.05,3.42-3.54,4.9ZM703.94,414.51c.58-1.94,1.35-3.54,3.24-3.95.71,1.05.95,2.21,1.08,3.84-1.62.55-2.94.67-4.32.11Z"></path>
    <circle class="cls-3" cx="1217.34" cy="442.79" r=".66"></circle>
    <circle class="cls-3" cx="1217.64" cy="444.26" r=".29"></circle>
    <path class="cls-3" d="M777.98,430.63l.49,12.05c7.82,2.81,9.77,3.42,17.69.65-.04-4.11.92-7.75.34-11.48-5.2-4.03-12.12-1.68-18.52-1.22Z"></path>
    <path class="cls-1" d="M620.38,439.77c-2.76-1.98-6.93-7.99-7.87-10.78-.27-.81-.8-1.69-1.64-1.8-1.51,3.56-7.89,15.18-12.51,13.29-4-1.64-.43-11.76,1-14.84.59-1.27,1.35-2.37,1.59-4-3.99,1.34-17.79,3.33-18.89-1.4-.17-.72.19-1.45.68-2.15,3.07-4.32,10.83-6.05,16.17-7.37-4.48-3.06-8.21-6.45-10.65-11.11-.75-1.42-1.49-3.39-.26-4.7,2.7-2.87,10.57,1.99,13.21,3.78,1.52,1.03,2.68,2.41,4.46,3.23-.15-4.82.35-14.28,3.97-17.47,1.18-1.04,2.58-.73,3.61.44,2.87,3.28,3.58,10.14,3.58,14.47,0,.92-.33,1.89.41,2.57,3.18-3.2,12.94-9.79,16.91-7.3,3.03,1.91-2.17,8.92-3.9,10.5l-3.38,3.09c-.98.89-2.34,1.41-2.96,2.69,4.97.95,9.57,2.31,13.76,4.98,1.75,1.11,3.88,3.82,2.03,5.59-1.94,1.86-5.52,1.92-8.13,1.91-5.44-.02-11.33-3.05-9.26.48,2.27,3.86,4.85,11.92,2.81,15.93-.9,1.77-3.46.9-4.75-.03Z"></path>
    <path class="cls-1" d="M1297.3,295.67l-2.16,3.26c-.6.91-.65,2.13-1.81,2.71-1.58-8.9-7.18-15.63-15.56-19.73,9.45-1.98,16.39-7.61,19.99-16.05.85,4.46,2.43,8.01,4.76,11.5,2.76,3.97,6.49,6.58,11.12,8.89-6.51,1.29-12.75,3.99-16.34,9.42Z"></path>
    <path class="cls-2" d="M801.13,275.1c-.06,2.47-.79,9.8-3.92,10.17-4.84.57-4.35-15.8-4.77-19.29l-5.44,8.61c-1.4,2.21-5.19,7.3-8.05,5.89-4.21-2.07,4.37-15.77,5.79-19.17l-8.28,4.46c-2.19,1.18-9.11,4.37-10.69,1.63-.41-.7-.34-1.97.1-2.77,3.04-4.34,10.02-8.02,14.57-11.05-3.76-.38-19.7.77-19.66-4.45.02-2.74,6.7-3.69,8.86-3.82l10.67-.65c-2.81-1.96-17.1-9.1-14.75-13.37,2.37-4.32,15.36,4.06,18.98,5.52l-4.9-9.54c-1.03-2-2.99-7.25-1.42-8.92,4.01-4.25,12.35,11.59,14.29,14.28.28-5.77-.27-13.6,2.21-18.24.57-.79,1.32-1.38,2.15-1.35,4.8.14,4.08,15.81,4.54,19.59,2.21-3.16,9.03-17.2,13.65-14.73,2.07,1.11.34,6.42-.58,8.28l-5.19,10.57c3.83-1.34,15.8-9.88,18.86-5.77,2.86,3.84-11.81,11.61-14.38,13.7,4.66.3,14.62-.12,18.05,2.37.89.65,1.67,1.74,1.1,2.8-2.08,3.86-15.23,3.53-19.51,3.66l8,5c2.44,1.53,4.72,3.15,6.44,5.48.83,1.13,1.11,3.13-.26,3.89-3.76,2.09-14.29-4.6-18.29-6.42,2.25,5.26,6.68,10.9,6.96,16.51.07,1.5-1.07,3.05-2.62,2.69-4.33-1.01-9.8-11.34-12.29-15.02l-.22,9.46Z"></path>
  </g>
  <g>
    <path class="cls-3" d="M785.74,719.39v-42.71s0-9.2,10.3-9.81c8.43,1.2,9.18,7.31,9.32,11.23.66,18.68-.05,75.05-.05,75.05-.01,2.48-2.87,4.41-5.38,4.4-4.34-.02-6.92-1.78-10.17-5.01-1.19-1.19-2.2-2.52-2.99-3.95-6.44,7.01-14.73,10.52-24.76,10.47-10.67-.05-19.12-3.1-25.11-9.07-7.04-7.01-9.72-17.06-9.65-31.79v-41.33c.03-5.7,4.5-10,9.76-10h.43c10.32,1.28,9.43,10.69,9.43,10.69v39.6s-.89,19.7,19.41,21.06c15.95-.36,19.74-15.33,19.46-18.84Z"></path>
    <path class="cls-3" d="M929.75,676.65c6.56-6.61,14.31-12.84,24.06-10.77,5.49,1.16,6.78,6.67,6.78,6.67,2.79,11.94-11.9,14.92-11.9,14.92-10.56,2.91-17.16,12.78-17.23,25.75l-.18,36.5c-.02,4.6-3.56,8.05-8.22,8.02h-3.24c-2.56-.03-5.13-1.13-7.06-3.04-1.92-1.91-3.02-4.46-3.01-6.98l.35-70.53s.64-9.03,10.24-9.26c8.58.68,9.4,8.73,9.4,8.73Z"></path>
    <path class="cls-3" d="M1318.8,676.52c-6.09-6.03-15.99-9.25-28.65-9.3-6.51-.03-15.91.95-23.66,5.82-7.38,4.63-11.39,11.73-11.59,20.54-.15,6.48,2.03,11.95,6.46,16.26,3.95,3.83,9.5,6.6,16.99,8.47l17.4,4.35c9.69,2.58,10.43,5.57,10.36,8.67-.08,3.49-1.61,6.04-4.67,7.81-3.02,1.74-7.45,2.65-12.82,2.62-5.19-.02-9.5-.85-12.47-2.38-2.96-1.53-4.57-3.71-5.06-6.85-.3-1.97-2.1-3.52-4.09-3.53l-10.95-.05c-1.91,0-3.37,1.41-3.39,3.29-.06,6.18,2.21,11.76,6.59,16.13,6.47,6.47,16.92,9.93,30.24,9.99,9.31.04,17.85-2.05,24.06-5.91,7.57-4.7,11.68-11.88,11.88-20.77.15-6.47-2.05-11.94-6.53-16.27-3.95-3.81-9.48-6.58-16.92-8.46l-16.76-4.19c-10.97-2.73-10.88-6.38-10.84-8.35,0-.02,0-.04,0-.06.06-9.34,11.35-10.48,16.2-10.53.24,0,.48,0,.71,0,14.83.07,15.77,7.01,16.07,9.31.27,2,2.08,3.6,4.1,3.6l10.78.05c1.92,0,3.39-1.43,3.39-3.33-.01-6.67-2.37-12.52-6.82-16.93Z"></path>
    <path class="cls-3" d="M890.52,674.11c-7.16-5.1-17.38-7.83-29.58-7.89-16.79-.08-30.79,5.65-39.42,16.12-3.08,3.74-3.7,8.78-1.62,13.16,2.1,4.43,6.47,7.2,11.39,7.22h.75c1.68.01,3.16-1.1,3.61-2.71,2.88-10.35,11.66-16.01,24.72-15.95,12.36.06,19,4.51,18.98,8.67-.02,4.47-8.16,6.99-21.26,9.62-1.26.25-2.53.49-3.81.73-20.13,3.85-42.94,8.2-43.05,28.59-.04,7.97,3.54,14.64,10.34,19.28,6.36,4.34,15.35,6.66,26,6.71,13.09.06,24.66-3.53,33.28-10.21.97,8.43,8.26,10.17,14.52,10.2h3.14c2.06.02,3.73-1.62,3.74-3.66v-56.45c.05-9.82-4.01-17.92-11.73-23.43ZM879.38,717.96c-.05,9.75-6.65,18.32-16.04,20.84-4.07,1.09-8.44,1.66-12.61,1.64-7.73-.04-16.75-2.33-16.72-8.66.03-6.57,9.18-8.87,24.24-11.87,1-.2,2.02-.4,3.01-.6,7.19-1.41,13.27-2.91,18.15-5.09l-.02,3.75Z"></path>
    <path class="cls-3" d="M1232,674.34c-7.11-5.07-17.27-7.78-29.38-7.84-16.68-.08-30.58,5.61-39.15,16.01-3.06,3.71-3.67,8.72-1.61,13.07,2.09,4.4,6.42,7.15,11.31,7.17h.74c1.67.01,3.14-1.09,3.58-2.69,2.86-10.28,11.58-15.91,24.55-15.85,12.27.06,18.87,4.48,18.85,8.61-.02,4.44-8.1,6.95-21.12,9.55-1.25.24-2.51.48-3.78.73-19.99,3.82-42.66,8.15-42.76,28.4-.04,7.92,3.51,14.54,10.27,19.15,6.32,4.31,15.25,6.62,25.82,6.67,13,.06,24.49-3.5,33.05-10.14,2.55,5.22,7.92,8.83,14.15,8.86h3.12c2.04.02,3.7-1.61,3.72-3.64l.28-54.8c.05-9.75-3.98-17.8-11.65-23.28ZM1220.94,717.9c-.05,9.69-6.6,18.2-15.94,20.7-4.05,1.08-8.38,1.65-12.53,1.63-7.68-.04-16.64-2.31-16.61-8.6.03-6.53,9.12-8.81,24.08-11.79,1-.2,2-.4,2.99-.6,7.14-1.4,13.18-2.9,18.03-5.06l-.02,3.72Z"></path>
    <path class="cls-3" d="M1024.43,730.04c-5.99,5.59-14.26,9.88-24.23,9.83-14.42-.07-24-8.36-25.72-21.9l68.68.32c3.13.01,5.73-2.5,5.8-5.61.59-26.23-18.73-44.64-46.99-44.77-13.57-.06-25.98,4.23-34.93,12.09-9.18,8.07-14.4,19.62-14.69,32.52-.3,13.27,4.22,24.6,13.07,32.75,8.57,7.9,20.41,12.11,34.23,12.17,16.33.08,27.35-3.63,37.61-12.1,0,0,5.39-4.28,6.36-8.23.97-3.95.67-9.28-5.8-11.87s-10.5,2.09-13.4,4.79ZM975.52,704.92c3.37-10.18,10.95-20.51,27.86-20.43,17.47.08,24.28,11.56,26.93,20.69l-54.79-.26Z"></path>
    <path class="cls-3" d="M1136.6,758.27c6.37-.06,10.13-5.07,10.13-11.44,0-14.92-.02-39.76,0-46.12.04-8.9-3.22-28.24-29.9-33.63-26.69-5.39-41.41,9.9-41.41,9.9l-.22-8.65c-11.58-2.57-17.14,1.72-19.77,5.87-1.59,2.5-2.31,5.46-2.3,8.42l.18,65.24c.02,5.79,4.71,10.48,10.5,10.48h0c5.79,0,10.49-4.69,10.5-10.49l.07-35.76c.01-5.65,1.44-11.26,4.44-16.04,3.67-5.85,10.24-11.66,21.87-11.49.23,0,.46,0,.69.01,13.44.38,24.15,11.35,24.31,24.79l.46,37.13s-1,11.85,10.44,11.76Z"></path>
    <path class="cls-3" d="M691.65,672.36c.16.36,2.34,4.3-5.34,8.4-1.67.89-1.53,3.38-.57,4.97.94,1.57,2.79,2.29,4.59,1.8,7.79-2.12,19.85-7.25,25.41-13.69,1.83-2.12,2.83-4.88,2.61-7.67-.88-11.03-18.59-13.5-32.5-11.68-40.89,4.84-91.56,47.11-75.73,91.01,16.66,39.73,74.89,24.28,96.72-2.88,25.48-27.18,4.19-61.96-30.77-46.77-11.03-14.61-36.41.63-36.16,20.06.26,8.02,1.97,14.33,5,13.56,3.77-2.15-2.02-10.66,9.03-19.88,5.67-4.73,14.43.15,11.4,8.85-.79,2.12,2.12,3.76,3.51,1.94,1.8-2.01,6.01-6.71,11.04-10.05,5.83-3.88,11.48-3.44,14.82-1.75,11.22,6.89-.08,22.2-10.12,29.62-12.56,9.28-22.86,12.43-35.38,10.47-19.39-5.74-23.71-23.06-13.77-43.88,8.39-19.09,28.48-28.55,36.75-31.29,0,0,17.21-6.04,19.48-1.14Z"></path>
  </g>
  <g>
    <path class="cls-3" d="M556.54,555.5c0-52.39,30.4-82.98,78.5-82.98,41.76,0,66.87,22.34,71.63,61.97l-36.21,7.18c-4.23-23.4-14.54-35.64-36.47-35.64-28.02,0-39.64,21.54-39.64,49.47,0,31.65,11.89,51.06,39.38,51.06,23.26,0,32.77-12.5,37.53-36.17l35.94,6.12c-4.76,39.89-30.92,63.03-73.21,63.03-49.16,0-77.44-31.38-77.44-84.04Z"></path>
    <path class="cls-3" d="M953.88,571.67c-7.65-15.94-18.84-43.42-26.49-64.58l-4.37.55c1.64,24.46,3.28,59.36,3.28,79.42v49.74h-36.59v-164.88h55.71l28.67,55.24c10.38,20.33,21.3,48.64,27.86,68.43l4.37-.55c-1.91-23.91-3.28-52.76-3.28-72.28v-50.84h36.32v164.88h-52.16l-33.32-65.13Z"></path>
    <path class="cls-3" d="M1112.85,571.67c-7.65-15.94-18.84-43.42-26.49-64.58l-4.37.55c1.64,24.46,3.28,59.36,3.28,79.42v49.74h-36.59v-164.88h55.71l28.67,55.24c10.38,20.33,21.3,48.64,27.86,68.43l4.37-.55c-1.91-23.91-3.28-52.76-3.28-72.28v-50.84h36.32v164.88h-52.16l-33.32-65.13Z"></path>
    <path class="cls-3" d="M1322.97,600.93h-63.36l-11.2,36.55h-40.69l57.35-164.88h54.07l57.08,164.88h-42.06l-11.2-36.55ZM1268.63,572.08h45.33l-6.28-20.34c-4.64-14.84-9.01-30.23-12.84-45.07h-6.55c-4.1,14.84-8.74,30.23-13.38,45.07l-6.28,20.34Z"></path>
    <path class="cls-3" d="M727.91,635.72v-165.11c11.29-.47,21.2-.86,29.75-1.18,8.54-.31,15.68-.51,21.4-.59,5.72-.08,10.15-.12,13.29-.12,14.74,0,26.97,1.1,36.69,3.29,9.72,2.2,17.32,5.69,22.81,10.47,5.49,4.78,9.41,10.94,11.76,18.46,2.35,7.53,3.53,16.7,3.53,27.52s-1.14,20.15-3.41,27.99c-2.27,7.84-5.92,14.27-10.94,19.29-5.02,5.02-11.68,8.74-19.99,11.17-8.31,2.43-18.43,3.65-30.34,3.65h-14.35c-1.73,0-3.41-.04-5.06-.12-1.65-.08-3.69-.24-6.12-.47-2.43-.24-5.45-.27-9.05-.12v45.86h-39.98ZM767.89,500.96v57.39c2.35.16,4.5.28,6.47.35,1.96.08,3.76.16,5.41.23,1.65.08,3.29.12,4.94.12h5.53c7.68,0,13.88-.55,18.58-1.65,4.7-1.09,8.35-2.9,10.94-5.41,2.59-2.51,4.39-5.8,5.41-9.88,1.02-4.08,1.53-9.09,1.53-15.05,0-4.7-.47-8.74-1.41-12.11-.94-3.37-2.55-6.15-4.82-8.35-2.28-2.19-5.45-3.8-9.53-4.82-4.08-1.02-9.25-1.53-15.52-1.53h-5.65c-1.73,0-3.57.04-5.53.12-1.96.08-4.23.16-6.82.23-2.59.08-5.76.2-9.52.35Z"></path>
  </g>
</svg>